999
dxflib 3.17.0.0
  0
SECTION
  2
HEADER
  9
$ACADVER
  1
AC1009
  9
$INSBASE
 10
0.0
 20
0.0
 30
0.0
  9
$EXTMIN
 10
-70.6023308753967314
 20
-58.9017159461975126
 30
-5.0701947927474977
  9
$EXTMAX
 10
29.5690228462219231
 20
20.7868439674377434
 30
4.0362919092178347
  9
$LIMMIN
 10
-70.6023308753967314
 20
-58.9017159461975126
  9
$LIMMAX
 10
29.5690228462219231
 20
20.7868439674377434
  0
ENDSEC
  0
SECTION
  2
TABLES
  0
TABLE
  2
VPORT
 70
1
  0
VPORT
  2
*Active
 70
0
 10
0.0
 20
0.0
 11
1.0
 21
1.0
 12
286.3055555555554861
 22
148.5
 13
0.0
 23
0.0
 14
10.0
 24
10.0
 15
10.0
 25
10.0
 16
0.0
 26
0.0
 36
1.0
 17
0.0
 27
0.0
 37
0.0
 40
297.0
 41
1.92798353909465
 42
50.0
 43
0.0
 44
0.0
 50
0.0
 51
0.0
 71
0
 72
100
 73
1
 74
3
 75
1
 76
1
 77
0
 78
0
  0
ENDTAB
  0
TABLE
  2
LTYPE
 70
3
  0
LTYPE
  2
CONTINUOUS
 70
0
  3
Solid line
 72
65
 73
0
 40
0.0
  0
ENDTAB
  0
TABLE
  2
LAYER
 70
206
  0
LAYER
  2
0
 70
0
 62
250
  6
CONTINUOUS
  0
LAYER
  2
POLYLINE_001
 70
0
 62
3
  6
CONTINUOUS
  0
LAYER
  2
POLYLINE_002
 70
0
 62
3
  6
CONTINUOUS
  0
LAYER
  2
POLYLINE_003
 70
0
 62
3
  6
CONTINUOUS
  0
LAYER
  2
POLYLINE_004
 70
0
 62
3
  6
CONTINUOUS
  0
LAYER
  2
POLYLINE_005
 70
0
 62
3
  6
CONTINUOUS
  0
LAYER
  2
POLYLINE_006
 70
0
 62
3
  6
CONTINUOUS
  0
LAYER
  2
POLYLINE_007
 70
0
 62
3
  6
CONTINUOUS
  0
LAYER
  2
POLYLINE_008
 70
0
 62
3
  6
CONTINUOUS
  0
LAYER
  2
POLYLINE_009
 70
0
 62
3
  6
CONTINUOUS
  0
LAYER
  2
POLYLINE_010
 70
0
 62
3
  6
CONTINUOUS
  0
LAYER
  2
POLYLINE_011
 70
0
 62
3
  6
CONTINUOUS
  0
LAYER
  2
POLYLINE_012
 70
0
 62
3
  6
CONTINUOUS
  0
LAYER
  2
POLYLINE_013
 70
0
 62
3
  6
CONTINUOUS
  0
LAYER
  2
POLYLINE_014
 70
0
 62
3
  6
CONTINUOUS
  0
LAYER
  2
POLYLINE_015
 70
0
 62
3
  6
CONTINUOUS
  0
LAYER
  2
POLYLINE_016
 70
0
 62
3
  6
CONTINUOUS
  0
LAYER
  2
POLYLINE_017
 70
0
 62
3
  6
CONTINUOUS
  0
LAYER
  2
POLYLINE_018
 70
0
 62
3
  6
CONTINUOUS
  0
LAYER
  2
POLYLINE_019
 70
0
 62
3
  6
CONTINUOUS
  0
LAYER
  2
POLYLINE_020
 70
0
 62
3
  6
CONTINUOUS
  0
LAYER
  2
POLYLINE_021
 70
0
 62
3
  6
CONTINUOUS
  0
LAYER
  2
POLYLINE_022
 70
0
 62
3
  6
CONTINUOUS
  0
LAYER
  2
POLYLINE_023
 70
0
 62
3
  6
CONTINUOUS
  0
LAYER
  2
POLYLINE_024
 70
0
 62
3
  6
CONTINUOUS
  0
LAYER
  2
POLYLINE_025
 70
0
 62
3
  6
CONTINUOUS
  0
LAYER
  2
POLYLINE_026
 70
0
 62
3
  6
CONTINUOUS
  0
LAYER
  2
POLYLINE_027
 70
0
 62
3
  6
CONTINUOUS
  0
LAYER
  2
POLYLINE_028
 70
0
 62
3
  6
CONTINUOUS
  0
LAYER
  2
POLYLINE_029
 70
0
 62
3
  6
CONTINUOUS
  0
LAYER
  2
POLYLINE_030
 70
0
 62
3
  6
CONTINUOUS
  0
LAYER
  2
POLYLINE_031
 70
0
 62
3
  6
CONTINUOUS
  0
LAYER
  2
POLYLINE_032
 70
0
 62
3
  6
CONTINUOUS
  0
LAYER
  2
POLYLINE_033
 70
0
 62
3
  6
CONTINUOUS
  0
LAYER
  2
POLYLINE_034
 70
0
 62
3
  6
CONTINUOUS
  0
LAYER
  2
POLYLINE_035
 70
0
 62
3
  6
CONTINUOUS
  0
LAYER
  2
POLYLINE_036
 70
0
 62
3
  6
CONTINUOUS
  0
LAYER
  2
POLYLINE_037
 70
0
 62
3
  6
CONTINUOUS
  0
LAYER
  2
POLYLINE_038
 70
0
 62
3
  6
CONTINUOUS
  0
LAYER
  2
POLYLINE_039
 70
0
 62
3
  6
CONTINUOUS
  0
LAYER
  2
POLYLINE_040
 70
0
 62
3
  6
CONTINUOUS
  0
LAYER
  2
POLYLINE_041
 70
0
 62
3
  6
CONTINUOUS
  0
LAYER
  2
POLYLINE_042
 70
0
 62
3
  6
CONTINUOUS
  0
LAYER
  2
POLYLINE_043
 70
0
 62
3
  6
CONTINUOUS
  0
LAYER
  2
POLYLINE_044
 70
0
 62
3
  6
CONTINUOUS
  0
LAYER
  2
POLYLINE_045
 70
0
 62
3
  6
CONTINUOUS
  0
LAYER
  2
POLYLINE_046
 70
0
 62
3
  6
CONTINUOUS
  0
LAYER
  2
POLYLINE_047
 70
0
 62
3
  6
CONTINUOUS
  0
LAYER
  2
POLYLINE_048
 70
0
 62
3
  6
CONTINUOUS
  0
LAYER
  2
POLYLINE_049
 70
0
 62
3
  6
CONTINUOUS
  0
LAYER
  2
POLYLINE_050
 70
0
 62
3
  6
CONTINUOUS
  0
LAYER
  2
POLYLINE_051
 70
0
 62
3
  6
CONTINUOUS
  0
LAYER
  2
POLYLINE_052
 70
0
 62
3
  6
CONTINUOUS
  0
LAYER
  2
POLYLINE_053
 70
0
 62
3
  6
CONTINUOUS
  0
LAYER
  2
POLYLINE_054
 70
0
 62
3
  6
CONTINUOUS
  0
LAYER
  2
POLYLINE_055
 70
0
 62
3
  6
CONTINUOUS
  0
LAYER
  2
POLYLINE_056
 70
0
 62
3
  6
CONTINUOUS
  0
LAYER
  2
POLYLINE_057
 70
0
 62
3
  6
CONTINUOUS
  0
LAYER
  2
POLYLINE_058
 70
0
 62
3
  6
CONTINUOUS
  0
LAYER
  2
POLYLINE_059
 70
0
 62
3
  6
CONTINUOUS
  0
LAYER
  2
POLYLINE_060
 70
0
 62
3
  6
CONTINUOUS
  0
LAYER
  2
POLYLINE_061
 70
0
 62
3
  6
CONTINUOUS
  0
LAYER
  2
POLYLINE_062
 70
0
 62
3
  6
CONTINUOUS
  0
LAYER
  2
POLYLINE_063
 70
0
 62
3
  6
CONTINUOUS
  0
LAYER
  2
POLYLINE_064
 70
0
 62
3
  6
CONTINUOUS
  0
LAYER
  2
POLYLINE_065
 70
0
 62
3
  6
CONTINUOUS
  0
LAYER
  2
POLYLINE_066
 70
0
 62
3
  6
CONTINUOUS
  0
LAYER
  2
POLYLINE_067
 70
0
 62
3
  6
CONTINUOUS
  0
LAYER
  2
POLYLINE_068
 70
0
 62
3
  6
CONTINUOUS
  0
LAYER
  2
POLYLINE_069
 70
0
 62
3
  6
CONTINUOUS
  0
LAYER
  2
POLYLINE_070
 70
0
 62
3
  6
CONTINUOUS
  0
LAYER
  2
POLYLINE_071
 70
0
 62
3
  6
CONTINUOUS
  0
LAYER
  2
POLYLINE_072
 70
0
 62
3
  6
CONTINUOUS
  0
LAYER
  2
POLYLINE_073
 70
0
 62
3
  6
CONTINUOUS
  0
LAYER
  2
POLYLINE_074
 70
0
 62
3
  6
CONTINUOUS
  0
LAYER
  2
POLYLINE_075
 70
0
 62
3
  6
CONTINUOUS
  0
LAYER
  2
POLYLINE_076
 70
0
 62
3
  6
CONTINUOUS
  0
LAYER
  2
POLYLINE_077
 70
0
 62
3
  6
CONTINUOUS
  0
LAYER
  2
POLYLINE_078
 70
0
 62
3
  6
CONTINUOUS
  0
LAYER
  2
POLYLINE_079
 70
0
 62
3
  6
CONTINUOUS
  0
LAYER
  2
POLYLINE_080
 70
0
 62
3
  6
CONTINUOUS
  0
LAYER
  2
POLYLINE_081
 70
0
 62
3
  6
CONTINUOUS
  0
LAYER
  2
POLYLINE_082
 70
0
 62
3
  6
CONTINUOUS
  0
LAYER
  2
POLYLINE_083
 70
0
 62
3
  6
CONTINUOUS
  0
LAYER
  2
POLYLINE_084
 70
0
 62
3
  6
CONTINUOUS
  0
LAYER
  2
POLYLINE_085
 70
0
 62
3
  6
CONTINUOUS
  0
LAYER
  2
POLYLINE_086
 70
0
 62
3
  6
CONTINUOUS
  0
LAYER
  2
POLYLINE_087
 70
0
 62
3
  6
CONTINUOUS
  0
LAYER
  2
POLYLINE_088
 70
0
 62
3
  6
CONTINUOUS
  0
LAYER
  2
POLYLINE_089
 70
0
 62
3
  6
CONTINUOUS
  0
LAYER
  2
POLYLINE_090
 70
0
 62
3
  6
CONTINUOUS
  0
LAYER
  2
POLYLINE_091
 70
0
 62
3
  6
CONTINUOUS
  0
LAYER
  2
POLYLINE_092
 70
0
 62
3
  6
CONTINUOUS
  0
LAYER
  2
POLYLINE_093
 70
0
 62
3
  6
CONTINUOUS
  0
LAYER
  2
POLYLINE_094
 70
0
 62
3
  6
CONTINUOUS
  0
LAYER
  2
POLYLINE_095
 70
0
 62
3
  6
CONTINUOUS
  0
LAYER
  2
POLYLINE_096
 70
0
 62
3
  6
CONTINUOUS
  0
LAYER
  2
POLYLINE_097
 70
0
 62
3
  6
CONTINUOUS
  0
LAYER
  2
POLYLINE_098
 70
0
 62
3
  6
CONTINUOUS
  0
LAYER
  2
POLYLINE_099
 70
0
 62
3
  6
CONTINUOUS
  0
LAYER
  2
POLYLINE_100
 70
0
 62
3
  6
CONTINUOUS
  0
LAYER
  2
POLYLINE_101
 70
0
 62
3
  6
CONTINUOUS
  0
LAYER
  2
POLYLINE_102
 70
0
 62
3
  6
CONTINUOUS
  0
LAYER
  2
POLYLINE_103
 70
0
 62
3
  6
CONTINUOUS
  0
LAYER
  2
POLYLINE_104
 70
0
 62
3
  6
CONTINUOUS
  0
LAYER
  2
POLYLINE_105
 70
0
 62
3
  6
CONTINUOUS
  0
LAYER
  2
POLYLINE_106
 70
0
 62
3
  6
CONTINUOUS
  0
LAYER
  2
POLYLINE_107
 70
0
 62
3
  6
CONTINUOUS
  0
LAYER
  2
POLYLINE_108
 70
0
 62
3
  6
CONTINUOUS
  0
LAYER
  2
POLYLINE_109
 70
0
 62
3
  6
CONTINUOUS
  0
LAYER
  2
POLYLINE_110
 70
0
 62
3
  6
CONTINUOUS
  0
LAYER
  2
POLYLINE_111
 70
0
 62
3
  6
CONTINUOUS
  0
LAYER
  2
POLYLINE_112
 70
0
 62
3
  6
CONTINUOUS
  0
LAYER
  2
POLYLINE_113
 70
0
 62
3
  6
CONTINUOUS
  0
LAYER
  2
POLYLINE_114
 70
0
 62
3
  6
CONTINUOUS
  0
LAYER
  2
POLYLINE_115
 70
0
 62
3
  6
CONTINUOUS
  0
LAYER
  2
POLYLINE_116
 70
0
 62
3
  6
CONTINUOUS
  0
LAYER
  2
POLYLINE_117
 70
0
 62
3
  6
CONTINUOUS
  0
LAYER
  2
POLYLINE_118
 70
0
 62
3
  6
CONTINUOUS
  0
LAYER
  2
POLYLINE_119
 70
0
 62
3
  6
CONTINUOUS
  0
LAYER
  2
POLYLINE_120
 70
0
 62
3
  6
CONTINUOUS
  0
LAYER
  2
POLYLINE_121
 70
0
 62
3
  6
CONTINUOUS
  0
LAYER
  2
POLYLINE_122
 70
0
 62
3
  6
CONTINUOUS
  0
LAYER
  2
POLYLINE_123
 70
0
 62
3
  6
CONTINUOUS
  0
LAYER
  2
POLYLINE_124
 70
0
 62
3
  6
CONTINUOUS
  0
LAYER
  2
POLYLINE_125
 70
0
 62
3
  6
CONTINUOUS
  0
LAYER
  2
POLYLINE_126
 70
0
 62
3
  6
CONTINUOUS
  0
LAYER
  2
POLYLINE_127
 70
0
 62
3
  6
CONTINUOUS
  0
LAYER
  2
POLYLINE_128
 70
0
 62
3
  6
CONTINUOUS
  0
LAYER
  2
POLYLINE_129
 70
0
 62
3
  6
CONTINUOUS
  0
LAYER
  2
POLYLINE_130
 70
0
 62
3
  6
CONTINUOUS
  0
LAYER
  2
POLYLINE_131
 70
0
 62
3
  6
CONTINUOUS
  0
LAYER
  2
POLYLINE_132
 70
0
 62
3
  6
CONTINUOUS
  0
LAYER
  2
POLYLINE_133
 70
0
 62
3
  6
CONTINUOUS
  0
LAYER
  2
POLYLINE_134
 70
0
 62
3
  6
CONTINUOUS
  0
LAYER
  2
POLYLINE_135
 70
0
 62
3
  6
CONTINUOUS
  0
LAYER
  2
POLYLINE_136
 70
0
 62
3
  6
CONTINUOUS
  0
LAYER
  2
POLYLINE_137
 70
0
 62
3
  6
CONTINUOUS
  0
LAYER
  2
POLYLINE_138
 70
0
 62
3
  6
CONTINUOUS
  0
LAYER
  2
POLYLINE_139
 70
0
 62
3
  6
CONTINUOUS
  0
LAYER
  2
POLYLINE_140
 70
0
 62
3
  6
CONTINUOUS
  0
LAYER
  2
POLYLINE_141
 70
0
 62
3
  6
CONTINUOUS
  0
LAYER
  2
POLYLINE_142
 70
0
 62
3
  6
CONTINUOUS
  0
LAYER
  2
POLYLINE_143
 70
0
 62
3
  6
CONTINUOUS
  0
LAYER
  2
POLYLINE_144
 70
0
 62
3
  6
CONTINUOUS
  0
LAYER
  2
POLYLINE_145
 70
0
 62
3
  6
CONTINUOUS
  0
LAYER
  2
POLYLINE_146
 70
0
 62
3
  6
CONTINUOUS
  0
LAYER
  2
POLYLINE_147
 70
0
 62
3
  6
CONTINUOUS
  0
LAYER
  2
POLYLINE_148
 70
0
 62
3
  6
CONTINUOUS
  0
LAYER
  2
POLYLINE_149
 70
0
 62
3
  6
CONTINUOUS
  0
LAYER
  2
POLYLINE_150
 70
0
 62
3
  6
CONTINUOUS
  0
LAYER
  2
POLYLINE_151
 70
0
 62
3
  6
CONTINUOUS
  0
LAYER
  2
POLYLINE_152
 70
0
 62
3
  6
CONTINUOUS
  0
LAYER
  2
POLYLINE_153
 70
0
 62
3
  6
CONTINUOUS
  0
LAYER
  2
POLYLINE_154
 70
0
 62
3
  6
CONTINUOUS
  0
LAYER
  2
POLYLINE_155
 70
0
 62
3
  6
CONTINUOUS
  0
LAYER
  2
POLYLINE_156
 70
0
 62
3
  6
CONTINUOUS
  0
LAYER
  2
POLYLINE_157
 70
0
 62
3
  6
CONTINUOUS
  0
LAYER
  2
POLYLINE_158
 70
0
 62
3
  6
CONTINUOUS
  0
LAYER
  2
POLYLINE_159
 70
0
 62
3
  6
CONTINUOUS
  0
LAYER
  2
POLYLINE_160
 70
0
 62
3
  6
CONTINUOUS
  0
LAYER
  2
POLYLINE_161
 70
0
 62
3
  6
CONTINUOUS
  0
LAYER
  2
POLYLINE_162
 70
0
 62
3
  6
CONTINUOUS
  0
LAYER
  2
POLYLINE_163
 70
0
 62
3
  6
CONTINUOUS
  0
LAYER
  2
POLYLINE_164
 70
0
 62
3
  6
CONTINUOUS
  0
LAYER
  2
POLYLINE_165
 70
0
 62
3
  6
CONTINUOUS
  0
LAYER
  2
POLYLINE_166
 70
0
 62
3
  6
CONTINUOUS
  0
LAYER
  2
POLYLINE_167
 70
0
 62
3
  6
CONTINUOUS
  0
LAYER
  2
POLYLINE_168
 70
0
 62
3
  6
CONTINUOUS
  0
LAYER
  2
POLYLINE_169
 70
0
 62
3
  6
CONTINUOUS
  0
LAYER
  2
POLYLINE_170
 70
0
 62
3
  6
CONTINUOUS
  0
LAYER
  2
POLYLINE_171
 70
0
 62
3
  6
CONTINUOUS
  0
LAYER
  2
POLYLINE_172
 70
0
 62
3
  6
CONTINUOUS
  0
LAYER
  2
POLYLINE_173
 70
0
 62
3
  6
CONTINUOUS
  0
LAYER
  2
POLYLINE_174
 70
0
 62
3
  6
CONTINUOUS
  0
LAYER
  2
POLYLINE_175
 70
0
 62
3
  6
CONTINUOUS
  0
LAYER
  2
POLYLINE_176
 70
0
 62
3
  6
CONTINUOUS
  0
LAYER
  2
POLYLINE_177
 70
0
 62
3
  6
CONTINUOUS
  0
LAYER
  2
POLYLINE_178
 70
0
 62
3
  6
CONTINUOUS
  0
LAYER
  2
POLYLINE_179
 70
0
 62
3
  6
CONTINUOUS
  0
LAYER
  2
POLYLINE_180
 70
0
 62
3
  6
CONTINUOUS
  0
LAYER
  2
POLYLINE_181
 70
0
 62
3
  6
CONTINUOUS
  0
LAYER
  2
POLYLINE_182
 70
0
 62
3
  6
CONTINUOUS
  0
LAYER
  2
POLYLINE_183
 70
0
 62
3
  6
CONTINUOUS
  0
LAYER
  2
POLYLINE_184
 70
0
 62
3
  6
CONTINUOUS
  0
LAYER
  2
POLYLINE_185
 70
0
 62
3
  6
CONTINUOUS
  0
LAYER
  2
POLYLINE_186
 70
0
 62
3
  6
CONTINUOUS
  0
LAYER
  2
POLYLINE_187
 70
0
 62
3
  6
CONTINUOUS
  0
LAYER
  2
POLYLINE_188
 70
0
 62
3
  6
CONTINUOUS
  0
LAYER
  2
POLYLINE_189
 70
0
 62
3
  6
CONTINUOUS
  0
LAYER
  2
POLYLINE_190
 70
0
 62
3
  6
CONTINUOUS
  0
LAYER
  2
POLYLINE_191
 70
0
 62
3
  6
CONTINUOUS
  0
LAYER
  2
POLYLINE_192
 70
0
 62
3
  6
CONTINUOUS
  0
LAYER
  2
POLYLINE_193
 70
0
 62
3
  6
CONTINUOUS
  0
LAYER
  2
POLYLINE_194
 70
0
 62
3
  6
CONTINUOUS
  0
LAYER
  2
POLYLINE_195
 70
0
 62
3
  6
CONTINUOUS
  0
LAYER
  2
POLYLINE_196
 70
0
 62
3
  6
CONTINUOUS
  0
LAYER
  2
POLYLINE_197
 70
0
 62
3
  6
CONTINUOUS
  0
LAYER
  2
POLYLINE_198
 70
0
 62
3
  6
CONTINUOUS
  0
LAYER
  2
POLYLINE_199
 70
0
 62
3
  6
CONTINUOUS
  0
LAYER
  2
POLYLINE_200
 70
0
 62
3
  6
CONTINUOUS
  0
LAYER
  2
POLYLINE_201
 70
0
 62
3
  6
CONTINUOUS
  0
LAYER
  2
POLYLINE_202
 70
0
 62
3
  6
CONTINUOUS
  0
LAYER
  2
POLYLINE_203
 70
0
 62
3
  6
CONTINUOUS
  0
LAYER
  2
POLYLINE_204
 70
0
 62
3
  6
CONTINUOUS
  0
LAYER
  2
POLYLINE_205
 70
0
 62
3
  6
CONTINUOUS
  0
ENDTAB
  0
TABLE
  2
STYLE
 70
1
  0
STYLE
  2
Standard
 70
0
 40
0.0
 41
0.75
 50
0.0
 71
0
 42
2.5
  3
txt
  4

  0
ENDTAB
  0
TABLE
  2
VIEW
 70
0
  0
ENDTAB
  0
TABLE
  2
UCS
 70
0
  0
ENDTAB
  0
TABLE
  2
APPID
 70
1
  0
APPID
  2
ACAD
 70
0
  0
ENDTAB
  0
TABLE
  2
DIMSTYLE
 70
1
  0
DIMSTYLE
  2
Standard
  3

  4

  5

  6

  7

 40
1.0
 41
1.0
 42
1.0
 43
3.75
 44
1.0
 45
0.0
 46
0.0
 47
0.0
 48
0.0
 70
0
 71
0
 72
0
 73
0
 74
0
 75
0
 76
0
 77
1
 78
8
140
1.0
141
2.5
142
0.0
143
0.03937007874016
144
1.0
145
0.0
146
1.0
147
1.0
170
0
171
3
172
1
173
0
174
0
175
0
176
0
177
0
178
0
  0
ENDTAB
  0
TABLE
  2
BLOCK_RECORD
 70
1
  0
BLOCK_RECORD
  2
*Model_Space
340
22
  0
BLOCK_RECORD
  2
*Paper_Space
340
1E
  0
BLOCK_RECORD
  2
*Paper_Space0
340
26
  0
ENDTAB
  0
ENDSEC
  0
SECTION
  2
BLOCKS
  0
BLOCK
  2
*Model_Space
 70
0
 10
0.0
 20
0.0
 30
0.0
  3
*Model_Space
  1

  0
ENDBLK
  0
BLOCK
  2
*Paper_Space
 70
0
 10
0.0
 20
0.0
 30
0.0
  3
*Paper_Space
  1

  0
ENDBLK
  0
BLOCK
  2
*Paper_Space0
 70
0
 10
0.0
 20
0.0
 30
0.0
  3
*Paper_Space0
  1

  0
ENDBLK
  0
ENDSEC
  0
SECTION
  2
ENTITIES
  0
POLYLINE
  8
POLYLINE_001
  6
BYLAYER
 66
1
 70
8
 10
0.0
 20
0.0
 30
0.0
  0
VERTEX
  8
POLYLINE_001
 10
-4.6918506622314453
 20
0.2569270133972168
 30
-0.5169514417648315
  0
VERTEX
  8
POLYLINE_001
 10
-2.0052673816680908
 20
-4.3335886001586914
 30
-0.5169514417648315
  0
SEQEND
  0
POLYLINE
  8
POLYLINE_002
  6
BYLAYER
 66
1
 70
8
 10
0.0
 20
0.0
 30
0.0
  0
VERTEX
  8
POLYLINE_002
 10
-3.4983510971069336
 20
0.968931257724762
 30
-0.5169514417648315
  0
VERTEX
  8
POLYLINE_002
 10
-4.6918506622314453
 20
0.2569270133972168
 30
-0.5169514417648315
  0
SEQEND
  0
POLYLINE
  8
POLYLINE_003
  6
BYLAYER
 66
1
 70
9
 10
0.0
 20
0.0
 30
0.0
  0
VERTEX
  8
POLYLINE_003
 10
-14.6215591430664062
 20
-14.9662914276123047
 30
-0.5169514417648315
  0
VERTEX
  8
POLYLINE_003
 10
-13.828547477722168
 20
-14.5130472183227539
 30
-0.5169514417648315
  0
VERTEX
  8
POLYLINE_003
 10
-13.4850292205810547
 20
-15.1140775680541992
 30
-0.5169514417648315
  0
VERTEX
  8
POLYLINE_003
 10
-14.278040885925293
 20
-15.5673227310180664
 30
-0.5169514417648315
  0
SEQEND
  0
POLYLINE
  8
POLYLINE_004
  6
BYLAYER
 66
1
 70
8
 10
0.0
 20
0.0
 30
0.0
  0
VERTEX
  8
POLYLINE_004
 10
-13.1813287734985352
 20
15.0834083557128906
 30
-0.5169514417648315
  0
VERTEX
  8
POLYLINE_004
 10
-13.546788215637207
 20
15.4740743637084961
 30
-0.5169514417648315
  0
SEQEND
  0
POLYLINE
  8
POLYLINE_005
  6
BYLAYER
 66
1
 70
8
 10
0.0
 20
0.0
 30
0.0
  0
VERTEX
  8
POLYLINE_005
 10
-10.9445104598999023
 20
12.4222688674926758
 30
-0.5169514417648315
  0
VERTEX
  8
POLYLINE_005
 10
-13.1813287734985352
 20
15.0834083557128906
 30
-0.5169514417648315
  0
SEQEND
  0
POLYLINE
  8
POLYLINE_006
  6
BYLAYER
 66
1
 70
8
 10
0.0
 20
0.0
 30
0.0
  0
VERTEX
  8
POLYLINE_006
 10
-10.4119338989257812
 20
9.40631103515625
 30
-0.5169514417648315
  0
VERTEX
  8
POLYLINE_006
 10
-10.9445104598999023
 20
12.4222688674926758
 30
-0.5169514417648315
  0
SEQEND
  0
POLYLINE
  8
POLYLINE_007
  6
BYLAYER
 66
1
 70
8
 10
0.0
 20
0.0
 30
0.0
  0
VERTEX
  8
POLYLINE_007
 10
-21.1699657440185547
 20
5.3613796234130859
 30
-0.5169514417648315
  0
VERTEX
  8
POLYLINE_007
 10
-10.4119338989257812
 20
9.40631103515625
 30
-0.5169514417648315
  0
SEQEND
  0
POLYLINE
  8
POLYLINE_008
  6
BYLAYER
 66
1
 70
8
 10
0.0
 20
0.0
 30
0.0
  0
VERTEX
  8
POLYLINE_008
 10
-25.5725936889648438
 20
3.445359468460083
 30
-0.5169514417648315
  0
VERTEX
  8
POLYLINE_008
 10
-21.1699657440185547
 20
5.3613796234130859
 30
-0.5169514417648315
  0
SEQEND
  0
POLYLINE
  8
POLYLINE_009
  6
BYLAYER
 66
1
 70
8
 10
0.0
 20
0.0
 30
0.0
  0
VERTEX
  8
POLYLINE_009
 10
-27.5963821411132812
 20
4.6517424583435059
 30
-0.5169514417648315
  0
VERTEX
  8
POLYLINE_009
 10
-25.5725936889648438
 20
3.445359468460083
 30
-0.5169514417648315
  0
SEQEND
  0
POLYLINE
  8
POLYLINE_010
  6
BYLAYER
 66
1
 70
8
 10
0.0
 20
0.0
 30
0.0
  0
VERTEX
  8
POLYLINE_010
 10
-34.9814338684082031
 20
1.3519301414489746
 30
-0.5169514417648315
  0
VERTEX
  8
POLYLINE_010
 10
-27.5963821411132812
 20
4.6517424583435059
 30
-0.5169514417648315
  0
SEQEND
  0
POLYLINE
  8
POLYLINE_011
  6
BYLAYER
 66
1
 70
8
 10
0.0
 20
0.0
 30
0.0
  0
VERTEX
  8
POLYLINE_011
 10
-59.2900428771972656
 20
-13.2846088409423828
 30
-0.5169514417648315
  0
VERTEX
  8
POLYLINE_011
 10
-34.9814338684082031
 20
1.3519301414489746
 30
-0.5169514417648315
  0
SEQEND
  0
POLYLINE
  8
POLYLINE_012
  6
BYLAYER
 66
1
 70
8
 10
0.0
 20
0.0
 30
0.0
  0
VERTEX
  8
POLYLINE_012
 10
-60.746307373046875
 20
-11.2333135604858398
 30
-0.5169514417648315
  0
VERTEX
  8
POLYLINE_012
 10
-59.2900428771972656
 20
-13.2846088409423828
 30
-0.5169514417648315
  0
SEQEND
  0
POLYLINE
  8
POLYLINE_013
  6
BYLAYER
 66
1
 70
8
 10
0.0
 20
0.0
 30
0.0
  0
VERTEX
  8
POLYLINE_013
 10
-1.4502841234207153
 20
-7.0524530410766602
 30
-0.5169514417648315
  0
VERTEX
  8
POLYLINE_013
 10
-0.0738184973597527
 20
-6.2083835601806641
 30
-0.5169514417648315
  0
SEQEND
  0
POLYLINE
  8
POLYLINE_014
  6
BYLAYER
 66
1
 70
8
 10
0.0
 20
0.0
 30
0.0
  0
VERTEX
  8
POLYLINE_014
 10
-8.7129459381103516
 20
-19.9706268310546875
 30
-0.5169514417648315
  0
VERTEX
  8
POLYLINE_014
 10
-8.1114883422851562
 20
-20.9647026062011719
 30
-0.5169514417648315
  0
SEQEND
  0
POLYLINE
  8
POLYLINE_015
  6
BYLAYER
 66
1
 70
8
 10
0.0
 20
0.0
 30
0.0
  0
VERTEX
  8
POLYLINE_015
 10
-9.62255859375
 20
-18.4672393798828125
 30
-0.5169514417648315
  0
VERTEX
  8
POLYLINE_015
 10
-8.7129459381103516
 20
-19.9706268310546875
 30
-0.5169514417648315
  0
SEQEND
  0
POLYLINE
  8
POLYLINE_016
  6
BYLAYER
 66
1
 70
8
 10
0.0
 20
0.0
 30
0.0
  0
VERTEX
  8
POLYLINE_016
 10
-9.8575372695922852
 20
-18.1313095092773438
 30
-0.5169514417648315
  0
VERTEX
  8
POLYLINE_016
 10
-9.62255859375
 20
-18.4672393798828125
 30
-0.5169514417648315
  0
SEQEND
  0
POLYLINE
  8
POLYLINE_017
  6
BYLAYER
 66
1
 70
8
 10
0.0
 20
0.0
 30
0.0
  0
VERTEX
  8
POLYLINE_017
 10
-10.1675777435302734
 20
-18.3367805480957031
 30
-0.5169514417648315
  0
VERTEX
  8
POLYLINE_017
 10
-9.8575372695922852
 20
-18.1313095092773438
 30
-0.5169514417648315
  0
SEQEND
  0
POLYLINE
  8
POLYLINE_018
  6
BYLAYER
 66
1
 70
8
 10
0.0
 20
0.0
 30
0.0
  0
VERTEX
  8
POLYLINE_018
 10
-10.3144388198852539
 20
-18.0823879241943359
 30
-0.5169514417648315
  0
VERTEX
  8
POLYLINE_018
 10
-10.1675777435302734
 20
-18.3367805480957031
 30
-0.5169514417648315
  0
SEQEND
  0
POLYLINE
  8
POLYLINE_019
  6
BYLAYER
 66
1
 70
8
 10
0.0
 20
0.0
 30
0.0
  0
VERTEX
  8
POLYLINE_019
 10
-10.01092529296875
 20
-17.8834381103515625
 30
-0.5169514417648315
  0
VERTEX
  8
POLYLINE_019
 10
-10.3144388198852539
 20
-18.0823879241943359
 30
-0.5169514417648315
  0
SEQEND
  0
POLYLINE
  8
POLYLINE_020
  6
BYLAYER
 66
1
 70
8
 10
0.0
 20
0.0
 30
0.0
  0
VERTEX
  8
POLYLINE_020
 10
-10.2295856475830078
 20
-17.4529266357421875
 30
-0.5169514417648315
  0
VERTEX
  8
POLYLINE_020
 10
-10.01092529296875
 20
-17.8834381103515625
 30
-0.5169514417648315
  0
SEQEND
  0
POLYLINE
  8
POLYLINE_021
  6
BYLAYER
 66
1
 70
8
 10
0.0
 20
0.0
 30
0.0
  0
VERTEX
  8
POLYLINE_021
 10
-12.5511922836303711
 20
-13.6623163223266602
 30
-0.5169514417648315
  0
VERTEX
  8
POLYLINE_021
 10
-10.2295856475830078
 20
-17.4529266357421875
 30
-0.5169514417648315
  0
SEQEND
  0
POLYLINE
  8
POLYLINE_022
  6
BYLAYER
 66
1
 70
9
 10
0.0
 20
0.0
 30
0.0
  0
VERTEX
  8
POLYLINE_022
 10
-10.4486751556396484
 20
-21.7322959899902344
 30
-0.5169514417648315
  0
VERTEX
  8
POLYLINE_022
 10
-10.1041965484619141
 20
-21.5375804901123047
 30
-0.5169514417648315
  0
VERTEX
  8
POLYLINE_022
 10
-9.8650331497192383
 20
-21.960693359375
 30
-0.5169514417648315
  0
VERTEX
  8
POLYLINE_022
 10
-10.2095117568969727
 20
-22.1554088592529297
 30
-0.5169514417648315
  0
SEQEND
  0
POLYLINE
  8
POLYLINE_023
  6
BYLAYER
 66
1
 70
9
 10
0.0
 20
0.0
 30
0.0
  0
VERTEX
  8
POLYLINE_023
 10
-12.6653947830200195
 20
-17.9181404113769531
 30
-0.5169514417648315
  0
VERTEX
  8
POLYLINE_023
 10
-12.2888860702514648
 20
-17.7068691253662109
 30
-0.5169514417648315
  0
VERTEX
  8
POLYLINE_023
 10
-11.9534597396850586
 20
-18.3046379089355469
 30
-0.5169514417648315
  0
VERTEX
  8
POLYLINE_023
 10
-12.3299684524536133
 20
-18.5159072875976562
 30
-0.5169514417648315
  0
SEQEND
  0
POLYLINE
  8
POLYLINE_024
  6
BYLAYER
 66
1
 70
9
 10
0.0
 20
0.0
 30
0.0
  0
VERTEX
  8
POLYLINE_024
 10
-13.7474842071533203
 20
-16.2822265625
 30
-0.5169514417648315
  0
VERTEX
  8
POLYLINE_024
 10
-13.4021987915039062
 20
-16.0884761810302734
 30
-0.5169514417648315
  0
VERTEX
  8
POLYLINE_024
 10
-13.1163311004638672
 20
-16.5979251861572266
 30
-0.5169514417648315
  0
VERTEX
  8
POLYLINE_024
 10
-13.4616165161132812
 20
-16.7916755676269531
 30
-0.5169514417648315
  0
SEQEND
  0
POLYLINE
  8
POLYLINE_025
  6
BYLAYER
 66
1
 70
9
 10
0.0
 20
0.0
 30
0.0
  0
VERTEX
  8
POLYLINE_025
 10
-19.5860404968261719
 20
-17.3707275390625
 30
-0.5169514417648315
  0
VERTEX
  8
POLYLINE_025
 10
-19.29022216796875
 20
-17.2047348022460938
 30
-0.5169514417648315
  0
VERTEX
  8
POLYLINE_025
 10
-19.1467838287353516
 20
-17.460357666015625
 30
-0.5169514417648315
  0
VERTEX
  8
POLYLINE_025
 10
-19.4426021575927734
 20
-17.6263504028320312
 30
-0.5169514417648315
  0
SEQEND
  0
POLYLINE
  8
POLYLINE_026
  6
BYLAYER
 66
1
 70
9
 10
0.0
 20
0.0
 30
0.0
  0
VERTEX
  8
POLYLINE_026
 10
-20.4201869964599609
 20
-15.6058979034423828
 30
-0.5169514417648315
  0
VERTEX
  8
POLYLINE_026
 10
-20.1243686676025391
 20
-15.4399051666259766
 30
-0.5169514417648315
  0
VERTEX
  8
POLYLINE_026
 10
-19.9809303283691406
 20
-15.6955280303955078
 30
-0.5169514417648315
  0
VERTEX
  8
POLYLINE_026
 10
-20.2767486572265625
 20
-15.8615207672119141
 30
-0.5169514417648315
  0
SEQEND
  0
POLYLINE
  8
POLYLINE_027
  6
BYLAYER
 66
1
 70
9
 10
0.0
 20
0.0
 30
0.0
  0
VERTEX
  8
POLYLINE_027
 10
-17.7652912139892578
 20
-16.2414398193359375
 30
-0.5169514417648315
  0
VERTEX
  8
POLYLINE_027
 10
-17.4694728851318359
 20
-16.0754470825195312
 30
-0.5169514417648315
  0
VERTEX
  8
POLYLINE_027
 10
-17.3260345458984375
 20
-16.3310699462890625
 30
-0.5169514417648315
  0
VERTEX
  8
POLYLINE_027
 10
-17.6218528747558594
 20
-16.4970626831054688
 30
-0.5169514417648315
  0
SEQEND
  0
POLYLINE
  8
POLYLINE_028
  6
BYLAYER
 66
1
 70
9
 10
0.0
 20
0.0
 30
0.0
  0
VERTEX
  8
POLYLINE_028
 10
-16.7583045959472656
 20
-15.7082357406616211
 30
-0.5169514417648315
  0
VERTEX
  8
POLYLINE_028
 10
-16.4624862670898438
 20
-15.5422430038452148
 30
-0.5169514417648315
  0
VERTEX
  8
POLYLINE_028
 10
-16.3190479278564453
 20
-15.7978658676147461
 30
-0.5169514417648315
  0
VERTEX
  8
POLYLINE_028
 10
-16.6148662567138672
 20
-15.9638586044311523
 30
-0.5169514417648315
  0
SEQEND
  0
POLYLINE
  8
POLYLINE_029
  6
BYLAYER
 66
1
 70
9
 10
0.0
 20
0.0
 30
0.0
  0
VERTEX
  8
POLYLINE_029
 10
-16.5253448486328125
 20
-13.2825336456298828
 30
-0.5169514417648315
  0
VERTEX
  8
POLYLINE_029
 10
-16.2295265197753906
 20
-13.1165399551391602
 30
-0.5169514417648315
  0
VERTEX
  8
POLYLINE_029
 10
-16.0860881805419922
 20
-13.3721628189086914
 30
-0.5169514417648315
  0
VERTEX
  8
POLYLINE_029
 10
-16.3819065093994141
 20
-13.5381565093994141
 30
-0.5169514417648315
  0
SEQEND
  0
POLYLINE
  8
POLYLINE_030
  6
BYLAYER
 66
1
 70
9
 10
0.0
 20
0.0
 30
0.0
  0
VERTEX
  8
POLYLINE_030
 10
-14.9472312927246094
 20
-14.5517091751098633
 30
-0.5169514417648315
  0
VERTEX
  8
POLYLINE_030
 10
-14.6514129638671875
 20
-14.3857154846191406
 30
-0.5169514417648315
  0
VERTEX
  8
POLYLINE_030
 10
-14.5079746246337891
 20
-14.6413383483886719
 30
-0.5169514417648315
  0
VERTEX
  8
POLYLINE_030
 10
-14.8037929534912109
 20
-14.8073320388793945
 30
-0.5169514417648315
  0
SEQEND
  0
POLYLINE
  8
POLYLINE_031
  6
BYLAYER
 66
1
 70
9
 10
0.0
 20
0.0
 30
0.0
  0
VERTEX
  8
POLYLINE_031
 10
-13.4279689788818359
 20
-11.4561929702758789
 30
-0.5169514417648315
  0
VERTEX
  8
POLYLINE_031
 10
-13.1321506500244141
 20
-11.2902002334594727
 30
-0.5169514417648315
  0
VERTEX
  8
POLYLINE_031
 10
-12.9887123107910156
 20
-11.5458230972290039
 30
-0.5169514417648315
  0
VERTEX
  8
POLYLINE_031
 10
-13.2845306396484375
 20
-11.7118158340454102
 30
-0.5169514417648315
  0
SEQEND
  0
POLYLINE
  8
POLYLINE_032
  6
BYLAYER
 66
1
 70
9
 10
0.0
 20
0.0
 30
0.0
  0
VERTEX
  8
POLYLINE_032
 10
-11.9904279708862305
 20
-12.790130615234375
 30
-0.5169514417648315
  0
VERTEX
  8
POLYLINE_032
 10
-11.6946096420288086
 20
-12.6241378784179688
 30
-0.5169514417648315
  0
VERTEX
  8
POLYLINE_032
 10
-11.5511713027954102
 20
-12.8797607421875
 30
-0.5169514417648315
  0
VERTEX
  8
POLYLINE_032
 10
-11.846989631652832
 20
-13.0457534790039062
 30
-0.5169514417648315
  0
SEQEND
  0
POLYLINE
  8
POLYLINE_033
  6
BYLAYER
 66
1
 70
9
 10
0.0
 20
0.0
 30
0.0
  0
VERTEX
  8
POLYLINE_033
 10
-10.0065145492553711
 20
-11.7312326431274414
 30
-0.5169514417648315
  0
VERTEX
  8
POLYLINE_033
 10
-9.7106962203979492
 20
-11.5652399063110352
 30
-0.5169514417648315
  0
VERTEX
  8
POLYLINE_033
 10
-9.5672578811645508
 20
-11.8208627700805664
 30
-0.5169514417648315
  0
VERTEX
  8
POLYLINE_033
 10
-9.8630762100219727
 20
-11.9868555068969727
 30
-0.5169514417648315
  0
SEQEND
  0
POLYLINE
  8
POLYLINE_034
  6
BYLAYER
 66
1
 70
9
 10
0.0
 20
0.0
 30
0.0
  0
VERTEX
  8
POLYLINE_034
 10
-11.4268159866333008
 20
-10.2667989730834961
 30
-0.5169514417648315
  0
VERTEX
  8
POLYLINE_034
 10
-11.1309976577758789
 20
-10.1008062362670898
 30
-0.5169514417648315
  0
VERTEX
  8
POLYLINE_034
 10
-10.9875602722167969
 20
-10.3564291000366211
 30
-0.5169514417648315
  0
VERTEX
  8
POLYLINE_034
 10
-11.2833786010742188
 20
-10.5224218368530273
 30
-0.5169514417648315
  0
SEQEND
  0
POLYLINE
  8
POLYLINE_035
  6
BYLAYER
 66
1
 70
9
 10
0.0
 20
0.0
 30
0.0
  0
VERTEX
  8
POLYLINE_035
 10
-9.7735538482666016
 20
-9.2529611587524414
 30
-0.5169514417648315
  0
VERTEX
  8
POLYLINE_035
 10
-9.4777364730834961
 20
-9.0869674682617188
 30
-0.5169514417648315
  0
VERTEX
  8
POLYLINE_035
 10
-9.3342981338500977
 20
-9.34259033203125
 30
-0.5169514417648315
  0
VERTEX
  8
POLYLINE_035
 10
-9.6301164627075195
 20
-9.5085840225219727
 30
-0.5169514417648315
  0
SEQEND
  0
POLYLINE
  8
POLYLINE_036
  6
BYLAYER
 66
1
 70
9
 10
0.0
 20
0.0
 30
0.0
  0
VERTEX
  8
POLYLINE_036
 10
-8.0150852203369141
 20
-10.5221366882324219
 30
-0.5169514417648315
  0
VERTEX
  8
POLYLINE_036
 10
-7.7192668914794922
 20
-10.3561429977416992
 30
-0.5169514417648315
  0
VERTEX
  8
POLYLINE_036
 10
-7.5758285522460938
 20
-10.6117658615112305
 30
-0.5169514417648315
  0
VERTEX
  8
POLYLINE_036
 10
-7.8716468811035156
 20
-10.7777595520019531
 30
-0.5169514417648315
  0
SEQEND
  0
POLYLINE
  8
POLYLINE_037
  6
BYLAYER
 66
1
 70
9
 10
0.0
 20
0.0
 30
0.0
  0
VERTEX
  8
POLYLINE_037
 10
-7.8860030174255371
 20
-8.1093692779541016
 30
-0.5169514417648315
  0
VERTEX
  8
POLYLINE_037
 10
-7.5901846885681152
 20
-7.9433760643005371
 30
-0.5169514417648315
  0
VERTEX
  8
POLYLINE_037
 10
-7.446746826171875
 20
-8.1989984512329102
 30
-0.5169514417648315
  0
VERTEX
  8
POLYLINE_037
 10
-7.7425651550292969
 20
-8.3649921417236328
 30
-0.5169514417648315
  0
SEQEND
  0
POLYLINE
  8
POLYLINE_038
  6
BYLAYER
 66
1
 70
9
 10
0.0
 20
0.0
 30
0.0
  0
VERTEX
  8
POLYLINE_038
 10
-6.0448703765869141
 20
-9.3485050201416016
 30
-0.5169514417648315
  0
VERTEX
  8
POLYLINE_038
 10
-5.7490525245666504
 20
-9.1825122833251953
 30
-0.5169514417648315
  0
VERTEX
  8
POLYLINE_038
 10
-5.605614185333252
 20
-9.4381351470947266
 30
-0.5169514417648315
  0
VERTEX
  8
POLYLINE_038
 10
-5.9014325141906738
 20
-9.6041278839111328
 30
-0.5169514417648315
  0
SEQEND
  0
POLYLINE
  8
POLYLINE_039
  6
BYLAYER
 66
1
 70
9
 10
0.0
 20
0.0
 30
0.0
  0
VERTEX
  8
POLYLINE_039
 10
-5.0251712799072266
 20
-6.4278240203857422
 30
-0.5169514417648315
  0
VERTEX
  8
POLYLINE_039
 10
-4.7293529510498047
 20
-6.2618312835693359
 30
-0.5169514417648315
  0
VERTEX
  8
POLYLINE_039
 10
-4.5859150886535645
 20
-6.5174541473388672
 30
-0.5169514417648315
  0
VERTEX
  8
POLYLINE_039
 10
-4.8817334175109863
 20
-6.6834468841552734
 30
-0.5169514417648315
  0
SEQEND
  0
POLYLINE
  8
POLYLINE_040
  6
BYLAYER
 66
1
 70
9
 10
0.0
 20
0.0
 30
0.0
  0
VERTEX
  8
POLYLINE_040
 10
-6.5259108543395996
 20
-7.3944978713989258
 30
-0.5169514417648315
  0
VERTEX
  8
POLYLINE_040
 10
-6.2300925254821777
 20
-7.2285046577453613
 30
-0.5169514417648315
  0
VERTEX
  8
POLYLINE_040
 10
-6.0866546630859375
 20
-7.4841275215148926
 30
-0.5169514417648315
  0
VERTEX
  8
POLYLINE_040
 10
-6.3824729919433594
 20
-7.650120735168457
 30
-0.5169514417648315
  0
SEQEND
  0
POLYLINE
  8
POLYLINE_041
  6
BYLAYER
 66
1
 70
9
 10
0.0
 20
0.0
 30
0.0
  0
VERTEX
  8
POLYLINE_041
 10
-3.7332727909088135
 20
-7.975590705871582
 30
-0.5169514417648315
  0
VERTEX
  8
POLYLINE_041
 10
-3.4374544620513916
 20
-7.8095979690551758
 30
-0.5169514417648315
  0
VERTEX
  8
POLYLINE_041
 10
-3.2940165996551514
 20
-8.065220832824707
 30
-0.5169514417648315
  0
VERTEX
  8
POLYLINE_041
 10
-3.5898349285125732
 20
-8.2312135696411133
 30
-0.5169514417648315
  0
SEQEND
  0
POLYLINE
  8
POLYLINE_042
  6
BYLAYER
 66
1
 70
9
 10
0.0
 20
0.0
 30
0.0
  0
VERTEX
  8
POLYLINE_042
 10
-2.1566030979156494
 20
-6.8968815803527832
 30
-0.5169514417648315
  0
VERTEX
  8
POLYLINE_042
 10
-1.8607847690582275
 20
-6.730888843536377
 30
-0.5169514417648315
  0
VERTEX
  8
POLYLINE_042
 10
-1.7173467874526978
 20
-6.9865117073059082
 30
-0.5169514417648315
  0
VERTEX
  8
POLYLINE_042
 10
-2.0131649971008301
 20
-7.1525044441223145
 30
-0.5169514417648315
  0
SEQEND
  0
POLYLINE
  8
POLYLINE_043
  6
BYLAYER
 66
1
 70
9
 10
0.0
 20
0.0
 30
0.0
  0
VERTEX
  8
POLYLINE_043
 10
-1.8832706212997437
 20
-4.5225653648376465
 30
-0.5169514417648315
  0
VERTEX
  8
POLYLINE_043
 10
-1.5874524116516113
 20
-4.356572151184082
 30
-0.5169514417648315
  0
VERTEX
  8
POLYLINE_043
 10
-1.4440144300460815
 20
-4.6121950149536133
 30
-0.5169514417648315
  0
VERTEX
  8
POLYLINE_043
 10
-1.7398326396942139
 20
-4.7781882286071777
 30
-0.5169514417648315
  0
SEQEND
  0
POLYLINE
  8
POLYLINE_044
  6
BYLAYER
 66
1
 70
9
 10
0.0
 20
0.0
 30
0.0
  0
VERTEX
  8
POLYLINE_044
 10
0.1658871918916702
 20
-5.5557827949523926
 30
-0.5169514417648315
  0
VERTEX
  8
POLYLINE_044
 10
0.4617054462432861
 20
-5.3897900581359863
 30
-0.5169514417648315
  0
VERTEX
  8
POLYLINE_044
 10
0.6051434278488159
 20
-5.6454129219055176
 30
-0.5169514417648315
  0
VERTEX
  8
POLYLINE_044
 10
0.3093251883983612
 20
-5.8114056587219238
 30
-0.5169514417648315
  0
SEQEND
  0
POLYLINE
  8
POLYLINE_045
  6
BYLAYER
 66
1
 70
9
 10
0.0
 20
0.0
 30
0.0
  0
VERTEX
  8
POLYLINE_045
 10
1.8424710035324097
 20
-4.5179109573364258
 30
-0.5169514417648315
  0
VERTEX
  8
POLYLINE_045
 10
2.138289213180542
 20
-4.3519182205200195
 30
-0.5169514417648315
  0
VERTEX
  8
POLYLINE_045
 10
2.2817273139953613
 20
-4.6075410842895508
 30
-0.5169514417648315
  0
VERTEX
  8
POLYLINE_045
 10
1.9859089851379395
 20
-4.773533821105957
 30
-0.5169514417648315
  0
SEQEND
  0
POLYLINE
  8
POLYLINE_046
  6
BYLAYER
 66
1
 70
9
 10
0.0
 20
0.0
 30
0.0
  0
VERTEX
  8
POLYLINE_046
 10
3.5469977855682373
 20
-3.5545053482055664
 30
-0.5169514417648315
  0
VERTEX
  8
POLYLINE_046
 10
3.8428158760070801
 20
-3.3885123729705811
 30
-0.5169514417648315
  0
VERTEX
  8
POLYLINE_046
 10
3.9862539768218994
 20
-3.6441352367401123
 30
-0.5169514417648315
  0
VERTEX
  8
POLYLINE_046
 10
3.6904356479644775
 20
-3.8101282119750977
 30
-0.5169514417648315
  0
SEQEND
  0
POLYLINE
  8
POLYLINE_047
  6
BYLAYER
 66
1
 70
9
 10
0.0
 20
0.0
 30
0.0
  0
VERTEX
  8
POLYLINE_047
 10
4.8370161056518555
 20
-0.5347972512245178
 30
-0.5169514417648315
  0
VERTEX
  8
POLYLINE_047
 10
5.1328344345092773
 20
-0.3688043057918549
 30
-0.5169514417648315
  0
VERTEX
  8
POLYLINE_047
 10
5.2762722969055176
 20
-0.6244271397590637
 30
-0.5169514417648315
  0
VERTEX
  8
POLYLINE_047
 10
4.9804539680480957
 20
-0.7904200553894043
 30
-0.5169514417648315
  0
SEQEND
  0
POLYLINE
  8
POLYLINE_048
  6
BYLAYER
 66
1
 70
9
 10
0.0
 20
0.0
 30
0.0
  0
VERTEX
  8
POLYLINE_048
 10
6.565185546875
 20
-1.799386739730835
 30
-0.5169514417648315
  0
VERTEX
  8
POLYLINE_048
 10
6.8610038757324219
 20
-1.6333938837051392
 30
-0.5169514417648315
  0
VERTEX
  8
POLYLINE_048
 10
7.0044417381286621
 20
-1.8890166282653809
 30
-0.5169514417648315
  0
VERTEX
  8
POLYLINE_048
 10
6.7086238861083984
 20
-2.0550096035003662
 30
-0.5169514417648315
  0
SEQEND
  0
POLYLINE
  8
POLYLINE_049
  6
BYLAYER
 66
1
 70
9
 10
0.0
 20
0.0
 30
0.0
  0
VERTEX
  8
POLYLINE_049
 10
7.8393979072570801
 20
-1.0858297348022461
 30
-0.5169514417648315
  0
VERTEX
  8
POLYLINE_049
 10
8.1352157592773438
 20
-0.9198368191719055
 30
-0.5169514417648315
  0
VERTEX
  8
POLYLINE_049
 10
8.2786540985107422
 20
-1.175459623336792
 30
-0.5169514417648315
  0
VERTEX
  8
POLYLINE_049
 10
7.9828357696533203
 20
-1.3414525985717773
 30
-0.5169514417648315
  0
SEQEND
  0
POLYLINE
  8
POLYLINE_050
  6
BYLAYER
 66
1
 70
9
 10
0.0
 20
0.0
 30
0.0
  0
VERTEX
  8
POLYLINE_050
 10
6.9445705413818359
 20
0.6936981081962585
 30
-0.5169514417648315
  0
VERTEX
  8
POLYLINE_050
 10
7.2403888702392578
 20
0.8596910238265991
 30
-0.5169514417648315
  0
VERTEX
  8
POLYLINE_050
 10
7.383826732635498
 20
0.6040682196617126
 30
-0.5169514417648315
  0
VERTEX
  8
POLYLINE_050
 10
7.0880088806152344
 20
0.4380753040313721
 30
-0.5169514417648315
  0
SEQEND
  0
POLYLINE
  8
POLYLINE_051
  6
BYLAYER
 66
1
 70
9
 10
0.0
 20
0.0
 30
0.0
  0
VERTEX
  8
POLYLINE_051
 10
5.8385705947875977
 20
0.0898557603359222
 30
-0.5169514417648315
  0
VERTEX
  8
POLYLINE_051
 10
6.1343884468078613
 20
0.2558486759662628
 30
-0.5169514417648315
  0
VERTEX
  8
POLYLINE_051
 10
6.2778267860412598
 20
0.0002258502063341
 30
-0.5169514417648315
  0
VERTEX
  8
POLYLINE_051
 10
5.9820084571838379
 20
-0.1657670587301254
 30
-0.5169514417648315
  0
SEQEND
  0
POLYLINE
  8
POLYLINE_052
  6
BYLAYER
 66
1
 70
8
 10
0.0
 20
0.0
 30
0.0
  0
VERTEX
  8
POLYLINE_052
 10
-49.6174736022949219
 20
-28.3768100738525391
 30
-0.5169514417648315
  0
VERTEX
  8
POLYLINE_052
 10
-49.7895622253417969
 20
-27.0023536682128906
 30
-0.5169514417648315
  0
SEQEND
  0
POLYLINE
  8
POLYLINE_053
  6
BYLAYER
 66
1
 70
8
 10
0.0
 20
0.0
 30
0.0
  0
VERTEX
  8
POLYLINE_053
 10
-46.7461929321289062
 20
-32.534881591796875
 30
-0.5169514417648315
  0
VERTEX
  8
POLYLINE_053
 10
-49.6174736022949219
 20
-28.3768100738525391
 30
-0.5169514417648315
  0
SEQEND
  0
POLYLINE
  8
POLYLINE_054
  6
BYLAYER
 66
1
 70
8
 10
0.0
 20
0.0
 30
0.0
  0
VERTEX
  8
POLYLINE_054
 10
-46.7461929321289062
 20
-34.2395286560058594
 30
-0.5169514417648315
  0
VERTEX
  8
POLYLINE_054
 10
-46.7461929321289062
 20
-32.534881591796875
 30
-0.5169514417648315
  0
SEQEND
  0
POLYLINE
  8
POLYLINE_055
  6
BYLAYER
 66
1
 70
8
 10
0.0
 20
0.0
 30
0.0
  0
VERTEX
  8
POLYLINE_055
 10
-46.7461929321289062
 20
-35.8091545104980469
 30
-0.5169514417648315
  0
VERTEX
  8
POLYLINE_055
 10
-46.7461929321289062
 20
-34.2395286560058594
 30
-0.5169514417648315
  0
SEQEND
  0
POLYLINE
  8
POLYLINE_056
  6
BYLAYER
 66
1
 70
8
 10
0.0
 20
0.0
 30
0.0
  0
VERTEX
  8
POLYLINE_056
 10
-44.5669708251953125
 20
-40.0858497619628906
 30
-0.5169514417648315
  0
VERTEX
  8
POLYLINE_056
 10
-46.7461929321289062
 20
-35.8091545104980469
 30
-0.5169514417648315
  0
SEQEND
  0
POLYLINE
  8
POLYLINE_057
  6
BYLAYER
 66
1
 70
8
 10
0.0
 20
0.0
 30
0.0
  0
VERTEX
  8
POLYLINE_057
 10
-42.3546676635742188
 20
-43.05029296875
 30
-0.5169514417648315
  0
VERTEX
  8
POLYLINE_057
 10
-44.5669708251953125
 20
-40.0858497619628906
 30
-0.5169514417648315
  0
SEQEND
  0
POLYLINE
  8
POLYLINE_058
  6
BYLAYER
 66
1
 70
8
 10
0.0
 20
0.0
 30
0.0
  0
VERTEX
  8
POLYLINE_058
 10
-36.2314376831054688
 20
-41.2102813720703125
 30
-0.5169514417648315
  0
VERTEX
  8
POLYLINE_058
 10
-42.3546676635742188
 20
-43.05029296875
 30
-0.5169514417648315
  0
SEQEND
  0
POLYLINE
  8
POLYLINE_059
  6
BYLAYER
 66
1
 70
8
 10
0.0
 20
0.0
 30
0.0
  0
VERTEX
  8
POLYLINE_059
 10
-30.8573780059814453
 20
-38.6582260131835938
 30
-0.5169514417648315
  0
VERTEX
  8
POLYLINE_059
 10
-36.2314376831054688
 20
-41.2102813720703125
 30
-0.5169514417648315
  0
SEQEND
  0
POLYLINE
  8
POLYLINE_060
  6
BYLAYER
 66
1
 70
8
 10
0.0
 20
0.0
 30
0.0
  0
VERTEX
  8
POLYLINE_060
 10
-27.1899185180664062
 20
-37.9720726013183594
 30
-0.5169514417648315
  0
VERTEX
  8
POLYLINE_060
 10
-30.8573780059814453
 20
-38.6582260131835938
 30
-0.5169514417648315
  0
SEQEND
  0
POLYLINE
  8
POLYLINE_061
  6
BYLAYER
 66
1
 70
8
 10
0.0
 20
0.0
 30
0.0
  0
VERTEX
  8
POLYLINE_061
 10
-25.2640819549560547
 20
-39.3443794250488281
 30
-0.5169514417648315
  0
VERTEX
  8
POLYLINE_061
 10
-27.1899185180664062
 20
-37.9720726013183594
 30
-0.5169514417648315
  0
SEQEND
  0
POLYLINE
  8
POLYLINE_062
  6
BYLAYER
 66
1
 70
8
 10
0.0
 20
0.0
 30
0.0
  0
VERTEX
  8
POLYLINE_062
 10
-15.4069929122924805
 20
-33.5765228271484375
 30
-0.5169514417648315
  0
VERTEX
  8
POLYLINE_062
 10
-25.2640819549560547
 20
-39.3443794250488281
 30
-0.5169514417648315
  0
SEQEND
  0
POLYLINE
  8
POLYLINE_063
  6
BYLAYER
 66
1
 70
8
 10
0.0
 20
0.0
 30
0.0
  0
VERTEX
  8
POLYLINE_063
 10
-14.3093986511230469
 20
-29.2786998748779297
 30
-0.5169514417648315
  0
VERTEX
  8
POLYLINE_063
 10
-15.4069929122924805
 20
-33.5765228271484375
 30
-0.5169514417648315
  0
SEQEND
  0
POLYLINE
  8
POLYLINE_064
  6
BYLAYER
 66
1
 70
8
 10
0.0
 20
0.0
 30
0.0
  0
VERTEX
  8
POLYLINE_064
 10
-16.3020267486572266
 20
-26.8517704010009766
 30
-0.5169514417648315
  0
VERTEX
  8
POLYLINE_064
 10
-14.3093986511230469
 20
-29.2786998748779297
 30
-0.5169514417648315
  0
SEQEND
  0
POLYLINE
  8
POLYLINE_065
  6
BYLAYER
 66
1
 70
8
 10
0.0
 20
0.0
 30
0.0
  0
VERTEX
  8
POLYLINE_065
 10
-18.5613231658935547
 20
-25.5583744049072266
 30
-0.5169514417648315
  0
VERTEX
  8
POLYLINE_065
 10
-16.3020267486572266
 20
-26.8517704010009766
 30
-0.5169514417648315
  0
SEQEND
  0
POLYLINE
  8
POLYLINE_066
  6
BYLAYER
 66
1
 70
8
 10
0.0
 20
0.0
 30
0.0
  0
VERTEX
  8
POLYLINE_066
 10
-22.9974155426025391
 20
-28.1167736053466797
 30
-0.5169514417648315
  0
VERTEX
  8
POLYLINE_066
 10
-18.5613231658935547
 20
-25.5583744049072266
 30
-0.5169514417648315
  0
SEQEND
  0
POLYLINE
  8
POLYLINE_067
  6
BYLAYER
 66
1
 70
8
 10
0.0
 20
0.0
 30
0.0
  0
VERTEX
  8
POLYLINE_067
 10
-24.1680660247802734
 20
-26.2813529968261719
 30
-0.5169514417648315
  0
VERTEX
  8
POLYLINE_067
 10
-22.9974155426025391
 20
-28.1167736053466797
 30
-0.5169514417648315
  0
SEQEND
  0
POLYLINE
  8
POLYLINE_068
  6
BYLAYER
 66
1
 70
8
 10
0.0
 20
0.0
 30
0.0
  0
VERTEX
  8
POLYLINE_068
 10
-25.0944976806640625
 20
-24.8288345336914062
 30
-0.5169514417648315
  0
VERTEX
  8
POLYLINE_068
 10
-24.1680660247802734
 20
-26.2813529968261719
 30
-0.5169514417648315
  0
SEQEND
  0
POLYLINE
  8
POLYLINE_069
  6
BYLAYER
 66
1
 70
8
 10
0.0
 20
0.0
 30
0.0
  0
VERTEX
  8
POLYLINE_069
 10
-25.832305908203125
 20
-22.0331401824951172
 30
-0.5169514417648315
  0
VERTEX
  8
POLYLINE_069
 10
-25.0944976806640625
 20
-24.8288345336914062
 30
-0.5169514417648315
  0
SEQEND
  0
POLYLINE
  8
POLYLINE_070
  6
BYLAYER
 66
1
 70
8
 10
0.0
 20
0.0
 30
0.0
  0
VERTEX
  8
POLYLINE_070
 10
-20.0328540802001953
 20
-18.0886783599853516
 30
-0.5169514417648315
  0
VERTEX
  8
POLYLINE_070
 10
-25.832305908203125
 20
-22.0331401824951172
 30
-0.5169514417648315
  0
SEQEND
  0
POLYLINE
  8
POLYLINE_071
  6
BYLAYER
 66
1
 70
8
 10
0.0
 20
0.0
 30
0.0
  0
VERTEX
  8
POLYLINE_071
 10
-24.7607898712158203
 20
-12.7647800445556641
 30
-0.5169514417648315
  0
VERTEX
  8
POLYLINE_071
 10
-25.4117431640625
 20
-10.891535758972168
 30
-0.5169514417648315
  0
SEQEND
  0
POLYLINE
  8
POLYLINE_072
  6
BYLAYER
 66
1
 70
8
 10
0.0
 20
0.0
 30
0.0
  0
VERTEX
  8
POLYLINE_072
 10
-23.3066844940185547
 20
-15.4897098541259766
 30
-0.5169514417648315
  0
VERTEX
  8
POLYLINE_072
 10
-24.7607898712158203
 20
-12.7647800445556641
 30
-0.5169514417648315
  0
SEQEND
  0
POLYLINE
  8
POLYLINE_073
  6
BYLAYER
 66
1
 70
8
 10
0.0
 20
0.0
 30
0.0
  0
VERTEX
  8
POLYLINE_073
 10
-21.6775608062744141
 20
-16.2467784881591797
 30
-0.5169514417648315
  0
VERTEX
  8
POLYLINE_073
 10
-23.3066844940185547
 20
-15.4897098541259766
 30
-0.5169514417648315
  0
SEQEND
  0
POLYLINE
  8
POLYLINE_074
  6
BYLAYER
 66
1
 70
8
 10
0.0
 20
0.0
 30
0.0
  0
VERTEX
  8
POLYLINE_074
 10
-21.3126449584960938
 20
-16.0278186798095703
 30
-0.5169514417648315
  0
VERTEX
  8
POLYLINE_074
 10
-21.6775608062744141
 20
-16.2467784881591797
 30
-0.5169514417648315
  0
SEQEND
  0
POLYLINE
  8
POLYLINE_075
  6
BYLAYER
 66
1
 70
8
 10
0.0
 20
0.0
 30
0.0
  0
VERTEX
  8
POLYLINE_075
 10
-44.7190475463867188
 20
-22.8560142517089844
 30
-0.5169514417648315
  0
VERTEX
  8
POLYLINE_075
 10
-44.2544746398925781
 20
-23.6031684875488281
 30
-0.5169514417648315
  0
SEQEND
  0
POLYLINE
  8
POLYLINE_076
  6
BYLAYER
 66
1
 70
8
 10
0.0
 20
0.0
 30
0.0
  0
VERTEX
  8
POLYLINE_076
 10
-28.7249317169189453
 20
-13.0109500885009766
 30
-0.5169514417648315
  0
VERTEX
  8
POLYLINE_076
 10
-44.7190475463867188
 20
-22.8560142517089844
 30
-0.5169514417648315
  0
SEQEND
  0
POLYLINE
  8
POLYLINE_077
  6
BYLAYER
 66
1
 70
8
 10
0.0
 20
0.0
 30
0.0
  0
VERTEX
  8
POLYLINE_077
 10
-28.5703125
 20
-13.2052021026611328
 30
-0.5169514417648315
  0
VERTEX
  8
POLYLINE_077
 10
-28.7249317169189453
 20
-13.0109500885009766
 30
-0.5169514417648315
  0
SEQEND
  0
POLYLINE
  8
POLYLINE_078
  6
BYLAYER
 66
1
 70
8
 10
0.0
 20
0.0
 30
0.0
  0
VERTEX
  8
POLYLINE_078
 10
-25.9000034332275391
 20
-16.559967041015625
 30
-0.5169514417648315
  0
VERTEX
  8
POLYLINE_078
 10
-28.5703125
 20
-13.2052021026611328
 30
-0.5169514417648315
  0
SEQEND
  0
POLYLINE
  8
POLYLINE_079
  6
BYLAYER
 66
1
 70
8
 10
0.0
 20
0.0
 30
0.0
  0
VERTEX
  8
POLYLINE_079
 10
-27.1970119476318359
 20
-17.932373046875
 30
-0.5169514417648315
  0
VERTEX
  8
POLYLINE_079
 10
-25.9000034332275391
 20
-16.559967041015625
 30
-0.5169514417648315
  0
SEQEND
  0
POLYLINE
  8
POLYLINE_080
  6
BYLAYER
 66
1
 70
8
 10
0.0
 20
0.0
 30
0.0
  0
VERTEX
  8
POLYLINE_080
 10
-26.5612239837646484
 20
-19.2031173706054688
 30
-0.5169514417648315
  0
VERTEX
  8
POLYLINE_080
 10
-27.1970119476318359
 20
-17.932373046875
 30
-0.5169514417648315
  0
SEQEND
  0
POLYLINE
  8
POLYLINE_081
  6
BYLAYER
 66
1
 70
8
 10
0.0
 20
0.0
 30
0.0
  0
VERTEX
  8
POLYLINE_081
 10
-27.2733058929443359
 20
-20.1180534362792969
 30
-0.5169514417648315
  0
VERTEX
  8
POLYLINE_081
 10
-26.5612239837646484
 20
-19.2031173706054688
 30
-0.5169514417648315
  0
SEQEND
  0
POLYLINE
  8
POLYLINE_082
  6
BYLAYER
 66
1
 70
8
 10
0.0
 20
0.0
 30
0.0
  0
VERTEX
  8
POLYLINE_082
 10
-36.6504096984863281
 20
-25.4610195159912109
 30
-0.5169514417648315
  0
VERTEX
  8
POLYLINE_082
 10
-27.2733058929443359
 20
-20.1180534362792969
 30
-0.5169514417648315
  0
SEQEND
  0
POLYLINE
  8
POLYLINE_083
  6
BYLAYER
 66
1
 70
8
 10
0.0
 20
0.0
 30
0.0
  0
VERTEX
  8
POLYLINE_083
 10
-37.9120521545410156
 20
-23.7336006164550781
 30
-0.5169514417648315
  0
VERTEX
  8
POLYLINE_083
 10
-36.6504096984863281
 20
-25.4610195159912109
 30
-0.5169514417648315
  0
SEQEND
  0
POLYLINE
  8
POLYLINE_084
  6
BYLAYER
 66
1
 70
8
 10
0.0
 20
0.0
 30
0.0
  0
VERTEX
  8
POLYLINE_084
 10
-43.1771697998046875
 20
-26.6126327514648438
 30
-0.5169514417648315
  0
VERTEX
  8
POLYLINE_084
 10
-37.9120521545410156
 20
-23.7336006164550781
 30
-0.5169514417648315
  0
SEQEND
  0
POLYLINE
  8
POLYLINE_085
  6
BYLAYER
 66
1
 70
8
 10
0.0
 20
0.0
 30
0.0
  0
VERTEX
  8
POLYLINE_085
 10
-44.4818954467773438
 20
-24.0648040771484375
 30
-0.5169514417648315
  0
VERTEX
  8
POLYLINE_085
 10
-43.1771697998046875
 20
-26.6126327514648438
 30
-0.5169514417648315
  0
SEQEND
  0
POLYLINE
  8
POLYLINE_086
  6
BYLAYER
 66
1
 70
8
 10
0.0
 20
0.0
 30
0.0
  0
VERTEX
  8
POLYLINE_086
 10
-5.8168554306030273
 20
0.8246247172355652
 30
-0.5169514417648315
  0
VERTEX
  8
POLYLINE_086
 10
-4.7153544425964355
 20
1.4745545387268066
 30
-0.5169514417648315
  0
SEQEND
  0
POLYLINE
  8
POLYLINE_087
  6
BYLAYER
 66
1
 70
8
 10
0.0
 20
0.0
 30
0.0
  0
VERTEX
  8
POLYLINE_087
 10
-2.4798614978790283
 20
-4.682192325592041
 30
-0.5169514417648315
  0
VERTEX
  8
POLYLINE_087
 10
-5.8168554306030273
 20
0.8246247172355652
 30
-0.5169514417648315
  0
SEQEND
  0
POLYLINE
  8
POLYLINE_088
  6
BYLAYER
 66
1
 70
8
 10
0.0
 20
0.0
 30
0.0
  0
VERTEX
  8
POLYLINE_088
 10
-0.6359472870826721
 20
-3.5660877227783203
 30
-0.5169514417648315
  0
VERTEX
  8
POLYLINE_088
 10
-2.4798614978790283
 20
-4.682192325592041
 30
-0.5169514417648315
  0
SEQEND
  0
POLYLINE
  8
POLYLINE_089
  6
BYLAYER
 66
1
 70
8
 10
0.0
 20
0.0
 30
0.0
  0
VERTEX
  8
POLYLINE_089
 10
-0.605931282043457
 20
-3.6226179599761963
 30
-0.5169514417648315
  0
VERTEX
  8
POLYLINE_089
 10
-0.6359472870826721
 20
-3.5660877227783203
 30
-0.5169514417648315
  0
SEQEND
  0
POLYLINE
  8
POLYLINE_090
  6
BYLAYER
 66
1
 70
8
 10
0.0
 20
0.0
 30
0.0
  0
VERTEX
  8
POLYLINE_090
 10
16.9534702301025391
 20
-9.5942802429199219
 30
-0.5169514417648315
  0
VERTEX
  8
POLYLINE_090
 10
14.5707454681396484
 20
-11.0692195892333984
 30
-0.5169514417648315
  0
SEQEND
  0
POLYLINE
  8
POLYLINE_091
  6
BYLAYER
 66
1
 70
8
 10
0.0
 20
0.0
 30
0.0
  0
VERTEX
  8
POLYLINE_091
 10
12.8282985687255859
 20
-2.7548317909240723
 30
-0.5169514417648315
  0
VERTEX
  8
POLYLINE_091
 10
16.9534702301025391
 20
-9.5942802429199219
 30
-0.5169514417648315
  0
SEQEND
  0
POLYLINE
  8
POLYLINE_092
  6
BYLAYER
 66
1
 70
8
 10
0.0
 20
0.0
 30
0.0
  0
VERTEX
  8
POLYLINE_092
 10
25.0157794952392578
 20
-9.155487060546875
 30
-0.5169514417648315
  0
VERTEX
  8
POLYLINE_092
 10
9.0167427062988281
 20
-19.7803859710693359
 30
-0.5169514417648315
  0
SEQEND
  0
POLYLINE
  8
POLYLINE_093
  6
BYLAYER
 66
1
 70
8
 10
0.0
 20
0.0
 30
0.0
  0
VERTEX
  8
POLYLINE_093
 10
11.6700897216796875
 20
11.7719306945800781
 30
-0.5169514417648315
  0
VERTEX
  8
POLYLINE_093
 10
25.0157794952392578
 20
-9.155487060546875
 30
-0.5169514417648315
  0
SEQEND
  0
POLYLINE
  8
POLYLINE_094
  6
BYLAYER
 66
1
 70
8
 10
0.0
 20
0.0
 30
0.0
  0
VERTEX
  8
POLYLINE_094
 10
1.6475647687911987
 20
5.2175674438476562
 30
-0.5169514417648315
  0
VERTEX
  8
POLYLINE_094
 10
11.6700897216796875
 20
11.7719306945800781
 30
-0.5169514417648315
  0
SEQEND
  0
POLYLINE
  8
POLYLINE_095
  6
BYLAYER
 66
1
 70
8
 10
0.0
 20
0.0
 30
0.0
  0
VERTEX
  8
POLYLINE_095
 10
-33.406890869140625
 20
5.3764810562133789
 30
-0.5169514417648315
  0
VERTEX
  8
POLYLINE_095
 10
-21.35479736328125
 20
11.8136129379272461
 30
-0.5169514417648315
  0
SEQEND
  0
POLYLINE
  8
POLYLINE_096
  6
BYLAYER
 66
1
 70
8
 10
0.0
 20
0.0
 30
0.0
  0
VERTEX
  8
POLYLINE_096
 10
-50.7058525085449219
 20
-4.1234445571899414
 30
-0.5169514417648315
  0
VERTEX
  8
POLYLINE_096
 10
-33.406890869140625
 20
5.3764810562133789
 30
-0.5169514417648315
  0
SEQEND
  0
POLYLINE
  8
POLYLINE_097
  6
BYLAYER
 66
1
 70
8
 10
0.0
 20
0.0
 30
0.0
  0
VERTEX
  8
POLYLINE_097
 10
-60.2661323547363281
 20
-10.469818115234375
 30
-0.5169514417648315
  0
VERTEX
  8
POLYLINE_097
 10
-50.7058525085449219
 20
-4.1234445571899414
 30
-0.5169514417648315
  0
SEQEND
  0
POLYLINE
  8
POLYLINE_098
  6
BYLAYER
 66
1
 70
8
 10
0.0
 20
0.0
 30
0.0
  0
VERTEX
  8
POLYLINE_098
 10
-66.0490875244140625
 20
-14.9814434051513672
 30
-0.5169514417648315
  0
VERTEX
  8
POLYLINE_098
 10
-60.2661323547363281
 20
-10.469818115234375
 30
-0.5169514417648315
  0
SEQEND
  0
POLYLINE
  8
POLYLINE_099
  6
BYLAYER
 66
1
 70
8
 10
0.0
 20
0.0
 30
0.0
  0
VERTEX
  8
POLYLINE_099
 10
-58.6465187072753906
 20
-20.1956043243408203
 30
-0.5169514417648315
  0
VERTEX
  8
POLYLINE_099
 10
-62.266693115234375
 20
-18.2925128936767578
 30
-0.5169514417648315
  0
SEQEND
  0
POLYLINE
  8
POLYLINE_100
  6
BYLAYER
 66
1
 70
8
 10
0.0
 20
0.0
 30
0.0
  0
VERTEX
  8
POLYLINE_100
 10
-56.7336692810058594
 20
-21.4282207489013672
 30
-0.5169514417648315
  0
VERTEX
  8
POLYLINE_100
 10
-58.6465187072753906
 20
-20.1956043243408203
 30
-0.5169514417648315
  0
SEQEND
  0
POLYLINE
  8
POLYLINE_101
  6
BYLAYER
 66
1
 70
8
 10
0.0
 20
0.0
 30
0.0
  0
VERTEX
  8
POLYLINE_101
 10
-54.9503326416015625
 20
-22.970977783203125
 30
-0.5169514417648315
  0
VERTEX
  8
POLYLINE_101
 10
-56.7336692810058594
 20
-21.4282207489013672
 30
-0.5169514417648315
  0
SEQEND
  0
POLYLINE
  8
POLYLINE_102
  6
BYLAYER
 66
1
 70
8
 10
0.0
 20
0.0
 30
0.0
  0
VERTEX
  8
POLYLINE_102
 10
-52.388763427734375
 20
-26.0239582061767578
 30
-0.5169514417648315
  0
VERTEX
  8
POLYLINE_102
 10
-54.9503326416015625
 20
-22.970977783203125
 30
-0.5169514417648315
  0
SEQEND
  0
POLYLINE
  8
POLYLINE_103
  6
BYLAYER
 66
1
 70
8
 10
0.0
 20
0.0
 30
0.0
  0
VERTEX
  8
POLYLINE_103
 10
-50.9992179870605469
 20
-25.1086006164550781
 30
-0.5169514417648315
  0
VERTEX
  8
POLYLINE_103
 10
-52.388763427734375
 20
-26.0239582061767578
 30
-0.5169514417648315
  0
SEQEND
  0
POLYLINE
  8
POLYLINE_104
  6
BYLAYER
 66
1
 70
8
 10
0.0
 20
0.0
 30
0.0
  0
VERTEX
  8
POLYLINE_104
 10
-14.0464420318603516
 20
15.3045253753662109
 30
-0.5169514417648315
  0
VERTEX
  8
POLYLINE_104
 10
-21.35479736328125
 20
11.8136129379272461
 30
-0.5169514417648315
  0
SEQEND
  0
POLYLINE
  8
POLYLINE_105
  6
BYLAYER
 66
1
 70
8
 10
0.0
 20
0.0
 30
0.0
  0
VERTEX
  8
POLYLINE_105
 10
-12.5351333618164062
 20
16.2336006164550781
 30
-0.5169514417648315
  0
VERTEX
  8
POLYLINE_105
 10
-14.0464420318603516
 20
15.3045253753662109
 30
-0.5169514417648315
  0
SEQEND
  0
POLYLINE
  8
POLYLINE_106
  6
BYLAYER
 66
1
 70
8
 10
0.0
 20
0.0
 30
0.0
  0
VERTEX
  8
POLYLINE_106
 10
-10.5908470153808594
 20
15.4355068206787109
 30
-0.5169514417648315
  0
VERTEX
  8
POLYLINE_106
 10
-12.5351333618164062
 20
16.2336006164550781
 30
-0.5169514417648315
  0
SEQEND
  0
POLYLINE
  8
POLYLINE_107
  6
BYLAYER
 66
1
 70
8
 10
0.0
 20
0.0
 30
0.0
  0
VERTEX
  8
POLYLINE_107
 10
-5.7649555206298828
 20
13.5326108932495117
 30
-0.5169514417648315
  0
VERTEX
  8
POLYLINE_107
 10
-10.5908470153808594
 20
15.4355068206787109
 30
-0.5169514417648315
  0
SEQEND
  0
POLYLINE
  8
POLYLINE_108
  6
BYLAYER
 66
1
 70
8
 10
0.0
 20
0.0
 30
0.0
  0
VERTEX
  8
POLYLINE_108
 10
-2.4315080642700195
 20
11.3938579559326172
 30
-0.5169514417648315
  0
VERTEX
  8
POLYLINE_108
 10
-5.7649555206298828
 20
13.5326108932495117
 30
-0.5169514417648315
  0
SEQEND
  0
POLYLINE
  8
POLYLINE_109
  6
BYLAYER
 66
1
 70
8
 10
0.0
 20
0.0
 30
0.0
  0
VERTEX
  8
POLYLINE_109
 10
0.5800458192825317
 20
6.5731410980224609
 30
-0.5169514417648315
  0
VERTEX
  8
POLYLINE_109
 10
-2.4315080642700195
 20
11.3938579559326172
 30
-0.5169514417648315
  0
SEQEND
  0
POLYLINE
  8
POLYLINE_110
  6
BYLAYER
 66
1
 70
8
 10
0.0
 20
0.0
 30
0.0
  0
VERTEX
  8
POLYLINE_110
 10
-6.6584935188293457
 20
4.3056745529174805
 30
-0.5169514417648315
  0
VERTEX
  8
POLYLINE_110
 10
-4.8268847465515137
 20
3.3105428218841553
 30
-0.5169514417648315
  0
SEQEND
  0
POLYLINE
  8
POLYLINE_111
  6
BYLAYER
 66
1
 70
8
 10
0.0
 20
0.0
 30
0.0
  0
VERTEX
  8
POLYLINE_111
 10
-8.3728485107421875
 20
5.2515592575073242
 30
-0.5169514417648315
  0
VERTEX
  8
POLYLINE_111
 10
-6.6584935188293457
 20
4.3056745529174805
 30
-0.5169514417648315
  0
SEQEND
  0
POLYLINE
  8
POLYLINE_112
  6
BYLAYER
 66
1
 70
8
 10
0.0
 20
0.0
 30
0.0
  0
VERTEX
  8
POLYLINE_112
 10
-9.7559385299682617
 20
5.4391417503356934
 30
-0.5169514417648315
  0
VERTEX
  8
POLYLINE_112
 10
-8.3728485107421875
 20
5.2515592575073242
 30
-0.5169514417648315
  0
SEQEND
  0
POLYLINE
  8
POLYLINE_113
  6
BYLAYER
 66
1
 70
8
 10
0.0
 20
0.0
 30
0.0
  0
VERTEX
  8
POLYLINE_113
 10
-9.9509172439575195
 20
5.3652410507202148
 30
-0.5169514417648315
  0
VERTEX
  8
POLYLINE_113
 10
-9.7559385299682617
 20
5.4391417503356934
 30
-0.5169514417648315
  0
SEQEND
  0
POLYLINE
  8
POLYLINE_114
  6
BYLAYER
 66
1
 70
8
 10
0.0
 20
0.0
 30
0.0
  0
VERTEX
  8
POLYLINE_114
 10
-26.9762020111083984
 20
-4.9739017486572266
 30
-0.5169514417648315
  0
VERTEX
  8
POLYLINE_114
 10
-9.9509172439575195
 20
5.3652410507202148
 30
-0.5169514417648315
  0
SEQEND
  0
POLYLINE
  8
POLYLINE_115
  6
BYLAYER
 66
1
 70
8
 10
0.0
 20
0.0
 30
0.0
  0
VERTEX
  8
POLYLINE_115
 10
-25.4117431640625
 20
-10.891535758972168
 30
-0.5169514417648315
  0
VERTEX
  8
POLYLINE_115
 10
-26.9762020111083984
 20
-4.9739017486572266
 30
-0.5169514417648315
  0
SEQEND
  0
POLYLINE
  8
POLYLINE_116
  6
BYLAYER
 66
1
 70
8
 10
0.0
 20
0.0
 30
0.0
  0
VERTEX
  8
POLYLINE_116
 10
-33.1393623352050781
 20
-8.7036466598510742
 30
-0.5169514417648315
  0
VERTEX
  8
POLYLINE_116
 10
-28.849334716796875
 20
-12.9374446868896484
 30
-0.5169514417648315
  0
SEQEND
  0
POLYLINE
  8
POLYLINE_117
  6
BYLAYER
 66
1
 70
8
 10
0.0
 20
0.0
 30
0.0
  0
VERTEX
  8
POLYLINE_117
 10
-47.0126800537109375
 20
-17.1592750549316406
 30
-0.5169514417648315
  0
VERTEX
  8
POLYLINE_117
 10
-33.1393623352050781
 20
-8.7036466598510742
 30
-0.5169514417648315
  0
SEQEND
  0
POLYLINE
  8
POLYLINE_118
  6
BYLAYER
 66
1
 70
8
 10
0.0
 20
0.0
 30
0.0
  0
VERTEX
  8
POLYLINE_118
 10
-47.5737876892089844
 20
-18.0170173645019531
 30
-0.5169514417648315
  0
VERTEX
  8
POLYLINE_118
 10
-47.0126800537109375
 20
-17.1592750549316406
 30
-0.5169514417648315
  0
SEQEND
  0
POLYLINE
  8
POLYLINE_119
  6
BYLAYER
 66
1
 70
8
 10
0.0
 20
0.0
 30
0.0
  0
VERTEX
  8
POLYLINE_119
 10
-45.6063079833984375
 20
-21.4008731842041016
 30
-0.5169514417648315
  0
VERTEX
  8
POLYLINE_119
 10
-47.5737876892089844
 20
-18.0170173645019531
 30
-0.5169514417648315
  0
SEQEND
  0
POLYLINE
  8
POLYLINE_120
  6
BYLAYER
 66
1
 70
8
 10
0.0
 20
0.0
 30
0.0
  0
VERTEX
  8
POLYLINE_120
 10
-45.9835472106933594
 20
-21.6156139373779297
 30
-0.5169514417648315
  0
VERTEX
  8
POLYLINE_120
 10
-45.6063079833984375
 20
-21.4008731842041016
 30
-0.5169514417648315
  0
SEQEND
  0
POLYLINE
  8
POLYLINE_121
  6
BYLAYER
 66
1
 70
8
 10
0.0
 20
0.0
 30
0.0
  0
VERTEX
  8
POLYLINE_121
 10
-45.8784904479980469
 20
-21.7921791076660156
 30
-0.5169514417648315
  0
VERTEX
  8
POLYLINE_121
 10
-45.9835472106933594
 20
-21.6156139373779297
 30
-0.5169514417648315
  0
SEQEND
  0
POLYLINE
  8
POLYLINE_122
  6
BYLAYER
 66
1
 70
8
 10
0.0
 20
0.0
 30
0.0
  0
VERTEX
  8
POLYLINE_122
 10
-45.7877655029296875
 20
-21.7921791076660156
 30
-0.5169514417648315
  0
VERTEX
  8
POLYLINE_122
 10
-45.8784904479980469
 20
-21.7921791076660156
 30
-0.5169514417648315
  0
SEQEND
  0
POLYLINE
  8
POLYLINE_123
  6
BYLAYER
 66
1
 70
8
 10
0.0
 20
0.0
 30
0.0
  0
VERTEX
  8
POLYLINE_123
 10
-45.1665306091308594
 20
-22.8300971984863281
 30
-0.5169514417648315
  0
VERTEX
  8
POLYLINE_123
 10
-45.7877655029296875
 20
-21.7921791076660156
 30
-0.5169514417648315
  0
SEQEND
  0
POLYLINE
  8
POLYLINE_124
  6
BYLAYER
 66
1
 70
8
 10
0.0
 20
0.0
 30
0.0
  0
VERTEX
  8
POLYLINE_124
 10
-45.4530410766601562
 20
-23.0066623687744141
 30
-0.5169514417648315
  0
VERTEX
  8
POLYLINE_124
 10
-45.1665306091308594
 20
-22.8300971984863281
 30
-0.5169514417648315
  0
SEQEND
  0
POLYLINE
  8
POLYLINE_125
  6
BYLAYER
 66
1
 70
8
 10
0.0
 20
0.0
 30
0.0
  0
VERTEX
  8
POLYLINE_125
 10
-45.2906837463378906
 20
-23.2404937744140625
 30
-0.5169514417648315
  0
VERTEX
  8
POLYLINE_125
 10
-45.4530410766601562
 20
-23.0066623687744141
 30
-0.5169514417648315
  0
SEQEND
  0
POLYLINE
  8
POLYLINE_126
  6
BYLAYER
 66
1
 70
8
 10
0.0
 20
0.0
 30
0.0
  0
VERTEX
  8
POLYLINE_126
 10
-45.0996780395507812
 20
-23.0973320007324219
 30
-0.5169514417648315
  0
VERTEX
  8
POLYLINE_126
 10
-45.2906837463378906
 20
-23.2404937744140625
 30
-0.5169514417648315
  0
SEQEND
  0
POLYLINE
  8
POLYLINE_127
  6
BYLAYER
 66
1
 70
8
 10
0.0
 20
0.0
 30
0.0
  0
VERTEX
  8
POLYLINE_127
 10
-44.6555862426757812
 20
-23.8608589172363281
 30
-0.5169514417648315
  0
VERTEX
  8
POLYLINE_127
 10
-45.0996780395507812
 20
-23.0973320007324219
 30
-0.5169514417648315
  0
SEQEND
  0
POLYLINE
  8
POLYLINE_128
  6
BYLAYER
 66
1
 70
8
 10
0.0
 20
0.0
 30
0.0
  0
VERTEX
  8
POLYLINE_128
 10
-44.2544746398925781
 20
-23.6031684875488281
 30
-0.5169514417648315
  0
VERTEX
  8
POLYLINE_128
 10
-44.6555862426757812
 20
-23.8608589172363281
 30
-0.5169514417648315
  0
SEQEND
  0
POLYLINE
  8
POLYLINE_129
  6
BYLAYER
 66
1
 70
8
 10
0.0
 20
0.0
 30
0.0
  0
VERTEX
  8
POLYLINE_129
 10
-50.7200202941894531
 20
-24.5038661956787109
 30
-0.5169514417648315
  0
VERTEX
  8
POLYLINE_129
 10
-51.0276527404785156
 20
-24.6952877044677734
 30
-0.5169514417648315
  0
SEQEND
  0
POLYLINE
  8
POLYLINE_130
  6
BYLAYER
 66
1
 70
8
 10
0.0
 20
0.0
 30
0.0
  0
VERTEX
  8
POLYLINE_130
 10
-50.5950889587402344
 20
-24.6784420013427734
 30
-0.5169514417648315
  0
VERTEX
  8
POLYLINE_130
 10
-50.7200202941894531
 20
-24.5038661956787109
 30
-0.5169514417648315
  0
SEQEND
  0
POLYLINE
  8
POLYLINE_131
  6
BYLAYER
 66
1
 70
8
 10
0.0
 20
0.0
 30
0.0
  0
VERTEX
  8
POLYLINE_131
 10
-50.6887245178222656
 20
-24.7362041473388672
 30
-0.5169514417648315
  0
VERTEX
  8
POLYLINE_131
 10
-50.5950889587402344
 20
-24.6784420013427734
 30
-0.5169514417648315
  0
SEQEND
  0
POLYLINE
  8
POLYLINE_132
  6
BYLAYER
 66
1
 70
8
 10
0.0
 20
0.0
 30
0.0
  0
VERTEX
  8
POLYLINE_132
 10
-50.001434326171875
 20
-25.8525218963623047
 30
-0.5169514417648315
  0
VERTEX
  8
POLYLINE_132
 10
-50.6887245178222656
 20
-24.7362041473388672
 30
-0.5169514417648315
  0
SEQEND
  0
POLYLINE
  8
POLYLINE_133
  6
BYLAYER
 66
1
 70
8
 10
0.0
 20
0.0
 30
0.0
  0
VERTEX
  8
POLYLINE_133
 10
-49.74542236328125
 20
-25.6937217712402344
 30
-0.5169514417648315
  0
VERTEX
  8
POLYLINE_133
 10
-50.001434326171875
 20
-25.8525218963623047
 30
-0.5169514417648315
  0
SEQEND
  0
POLYLINE
  8
POLYLINE_134
  6
BYLAYER
 66
1
 70
8
 10
0.0
 20
0.0
 30
0.0
  0
VERTEX
  8
POLYLINE_134
 10
-49.60711669921875
 20
-25.8848705291748047
 30
-0.5169514417648315
  0
VERTEX
  8
POLYLINE_134
 10
-49.74542236328125
 20
-25.6937217712402344
 30
-0.5169514417648315
  0
SEQEND
  0
POLYLINE
  8
POLYLINE_135
  6
BYLAYER
 66
1
 70
8
 10
0.0
 20
0.0
 30
0.0
  0
VERTEX
  8
POLYLINE_135
 10
-49.8101615905761719
 20
-26.0319080352783203
 30
-0.5169514417648315
  0
VERTEX
  8
POLYLINE_135
 10
-49.60711669921875
 20
-25.8848705291748047
 30
-0.5169514417648315
  0
SEQEND
  0
POLYLINE
  8
POLYLINE_136
  6
BYLAYER
 66
1
 70
8
 10
0.0
 20
0.0
 30
0.0
  0
VERTEX
  8
POLYLINE_136
 10
-49.3481636047363281
 20
-26.7376861572265625
 30
-0.5169514417648315
  0
VERTEX
  8
POLYLINE_136
 10
-49.8101615905761719
 20
-26.0319080352783203
 30
-0.5169514417648315
  0
SEQEND
  0
POLYLINE
  8
POLYLINE_137
  6
BYLAYER
 66
1
 70
8
 10
0.0
 20
0.0
 30
0.0
  0
VERTEX
  8
POLYLINE_137
 10
-49.7895622253417969
 20
-27.0023536682128906
 30
-0.5169514417648315
  0
VERTEX
  8
POLYLINE_137
 10
-49.3481636047363281
 20
-26.7376861572265625
 30
-0.5169514417648315
  0
SEQEND
  0
POLYLINE
  8
POLYLINE_138
  6
BYLAYER
 66
1
 70
8
 10
0.0
 20
0.0
 30
0.0
  0
VERTEX
  8
POLYLINE_138
 10
4.4947218894958496
 20
0.3728080987930298
 30
-0.5169514417648315
  0
VERTEX
  8
POLYLINE_138
 10
4.8141751289367676
 20
-0.2323364168405533
 30
-0.5169514417648315
  0
SEQEND
  0
POLYLINE
  8
POLYLINE_139
  6
BYLAYER
 66
1
 70
8
 10
0.0
 20
0.0
 30
0.0
  0
VERTEX
  8
POLYLINE_139
 10
6.0447263717651367
 20
1.3653416633605957
 30
-0.5169514417648315
  0
VERTEX
  8
POLYLINE_139
 10
4.4947218894958496
 20
0.3728080987930298
 30
-0.5169514417648315
  0
SEQEND
  0
POLYLINE
  8
POLYLINE_140
  6
BYLAYER
 66
1
 70
8
 10
0.0
 20
0.0
 30
0.0
  0
VERTEX
  8
POLYLINE_140
 10
4.1855154037475586
 20
4.5271682739257812
 30
-0.5169514417648315
  0
VERTEX
  8
POLYLINE_140
 10
6.0447263717651367
 20
1.3653416633605957
 30
-0.5169514417648315
  0
SEQEND
  0
POLYLINE
  8
POLYLINE_141
  6
BYLAYER
 66
1
 70
8
 10
0.0
 20
0.0
 30
0.0
  0
VERTEX
  8
POLYLINE_141
 10
2.4563107490539551
 20
3.483344554901123
 30
-0.5169514417648315
  0
VERTEX
  8
POLYLINE_141
 10
4.1855154037475586
 20
4.5271682739257812
 30
-0.5169514417648315
  0
SEQEND
  0
POLYLINE
  8
POLYLINE_142
  6
BYLAYER
 66
1
 70
8
 10
0.0
 20
0.0
 30
0.0
  0
VERTEX
  8
POLYLINE_142
 10
1.9902868270874023
 20
4.2449932098388672
 30
-0.5169514417648315
  0
VERTEX
  8
POLYLINE_142
 10
2.4563107490539551
 20
3.483344554901123
 30
-0.5169514417648315
  0
SEQEND
  0
POLYLINE
  8
POLYLINE_143
  6
BYLAYER
 66
1
 70
8
 10
0.0
 20
0.0
 30
0.0
  0
VERTEX
  8
POLYLINE_143
 10
1.8095899820327759
 20
4.1336369514465332
 30
-0.5169514417648315
  0
VERTEX
  8
POLYLINE_143
 10
1.9902868270874023
 20
4.2449932098388672
 30
-0.5169514417648315
  0
SEQEND
  0
POLYLINE
  8
POLYLINE_144
  6
BYLAYER
 66
1
 70
8
 10
0.0
 20
0.0
 30
0.0
  0
VERTEX
  8
POLYLINE_144
 10
0.2364648729562759
 20
6.3076763153076172
 30
-0.5169514417648315
  0
VERTEX
  8
POLYLINE_144
 10
0.5800458192825317
 20
6.5731410980224609
 30
-0.5169514417648315
  0
SEQEND
  0
POLYLINE
  8
POLYLINE_145
  6
BYLAYER
 66
1
 70
8
 10
0.0
 20
0.0
 30
0.0
  0
VERTEX
  8
POLYLINE_145
 10
0.3724685609340668
 20
6.0940899848937988
 30
-0.5169514417648315
  0
VERTEX
  8
POLYLINE_145
 10
0.2364648729562759
 20
6.3076763153076172
 30
-0.5169514417648315
  0
SEQEND
  0
POLYLINE
  8
POLYLINE_146
  6
BYLAYER
 66
1
 70
8
 10
0.0
 20
0.0
 30
0.0
  0
VERTEX
  8
POLYLINE_146
 10
0.4136158227920532
 20
6.135310173034668
 30
-0.5169514417648315
  0
VERTEX
  8
POLYLINE_146
 10
0.3724685609340668
 20
6.0940899848937988
 30
-0.5169514417648315
  0
SEQEND
  0
POLYLINE
  8
POLYLINE_147
  6
BYLAYER
 66
1
 70
8
 10
0.0
 20
0.0
 30
0.0
  0
VERTEX
  8
POLYLINE_147
 10
1.0664728879928589
 20
5.1210536956787109
 30
-0.5169514417648315
  0
VERTEX
  8
POLYLINE_147
 10
0.4136158227920532
 20
6.135310173034668
 30
-0.5169514417648315
  0
SEQEND
  0
POLYLINE
  8
POLYLINE_148
  6
BYLAYER
 66
1
 70
8
 10
0.0
 20
0.0
 30
0.0
  0
VERTEX
  8
POLYLINE_148
 10
0.8141824007034302
 20
4.9493117332458496
 30
-0.5169514417648315
  0
VERTEX
  8
POLYLINE_148
 10
1.0664728879928589
 20
5.1210536956787109
 30
-0.5169514417648315
  0
SEQEND
  0
POLYLINE
  8
POLYLINE_149
  6
BYLAYER
 66
1
 70
8
 10
0.0
 20
0.0
 30
0.0
  0
VERTEX
  8
POLYLINE_149
 10
1.0114669799804688
 20
4.6390872001647949
 30
-0.5169514417648315
  0
VERTEX
  8
POLYLINE_149
 10
0.8141824007034302
 20
4.9493117332458496
 30
-0.5169514417648315
  0
SEQEND
  0
POLYLINE
  8
POLYLINE_150
  6
BYLAYER
 66
1
 70
8
 10
0.0
 20
0.0
 30
0.0
  0
VERTEX
  8
POLYLINE_150
 10
1.1739374399185181
 20
4.789853572845459
 30
-0.5169514417648315
  0
VERTEX
  8
POLYLINE_150
 10
1.0114669799804688
 20
4.6390872001647949
 30
-0.5169514417648315
  0
SEQEND
  0
POLYLINE
  8
POLYLINE_151
  6
BYLAYER
 66
1
 70
8
 10
0.0
 20
0.0
 30
0.0
  0
VERTEX
  8
POLYLINE_151
 10
1.6355186700820923
 20
4.0263638496398926
 30
-0.5169514417648315
  0
VERTEX
  8
POLYLINE_151
 10
1.1739374399185181
 20
4.789853572845459
 30
-0.5169514417648315
  0
SEQEND
  0
POLYLINE
  8
POLYLINE_152
  6
BYLAYER
 66
1
 70
8
 10
0.0
 20
0.0
 30
0.0
  0
VERTEX
  8
POLYLINE_152
 10
1.8095899820327759
 20
4.1336369514465332
 30
-0.5169514417648315
  0
VERTEX
  8
POLYLINE_152
 10
1.6355186700820923
 20
4.0263638496398926
 30
-0.5169514417648315
  0
SEQEND
  0
POLYLINE
  8
POLYLINE_153
  6
BYLAYER
 66
1
 70
8
 10
0.0
 20
0.0
 30
0.0
  0
VERTEX
  8
POLYLINE_153
 10
4.6136255264282227
 20
-0.5526069402694702
 30
-0.5169514417648315
  0
VERTEX
  8
POLYLINE_153
 10
1.8095899820327759
 20
4.1336369514465332
 30
-0.5169514417648315
  0
SEQEND
  0
POLYLINE
  8
POLYLINE_154
  6
BYLAYER
 66
1
 70
8
 10
0.0
 20
0.0
 30
0.0
  0
VERTEX
  8
POLYLINE_154
 10
7.3267173767089844
 20
1.0695855617523193
 30
-0.5169514417648315
  0
VERTEX
  8
POLYLINE_154
 10
4.6136255264282227
 20
-0.5526069402694702
 30
-0.5169514417648315
  0
SEQEND
  0
POLYLINE
  8
POLYLINE_155
  6
BYLAYER
 66
1
 70
8
 10
0.0
 20
0.0
 30
0.0
  0
VERTEX
  8
POLYLINE_155
 10
-3.1021263599395752
 20
1.2053065299987793
 30
-0.5169514417648315
  0
VERTEX
  8
POLYLINE_155
 10
-3.4983510971069336
 20
0.968931257724762
 30
-0.5169514417648315
  0
SEQEND
  0
POLYLINE
  8
POLYLINE_156
  6
BYLAYER
 66
1
 70
8
 10
0.0
 20
0.0
 30
0.0
  0
VERTEX
  8
POLYLINE_156
 10
-3.5388152599334717
 20
1.9807088375091553
 30
-0.5169514417648315
  0
VERTEX
  8
POLYLINE_156
 10
-3.1021263599395752
 20
1.2053065299987793
 30
-0.5169514417648315
  0
SEQEND
  0
POLYLINE
  8
POLYLINE_157
  6
BYLAYER
 66
1
 70
8
 10
0.0
 20
0.0
 30
0.0
  0
VERTEX
  8
POLYLINE_157
 10
-3.3436956405639648
 20
2.0685436725616455
 30
-0.5169514417648315
  0
VERTEX
  8
POLYLINE_157
 10
-3.5388152599334717
 20
1.9807088375091553
 30
-0.5169514417648315
  0
SEQEND
  0
POLYLINE
  8
POLYLINE_158
  6
BYLAYER
 66
1
 70
8
 10
0.0
 20
0.0
 30
0.0
  0
VERTEX
  8
POLYLINE_158
 10
-3.5282680988311768
 20
2.3267834186553955
 30
-0.5169514417648315
  0
VERTEX
  8
POLYLINE_158
 10
-3.3436956405639648
 20
2.0685436725616455
 30
-0.5169514417648315
  0
SEQEND
  0
POLYLINE
  8
POLYLINE_159
  6
BYLAYER
 66
1
 70
8
 10
0.0
 20
0.0
 30
0.0
  0
VERTEX
  8
POLYLINE_159
 10
-3.7972187995910645
 20
2.1634092330932617
 30
-0.5169514417648315
  0
VERTEX
  8
POLYLINE_159
 10
-3.5282680988311768
 20
2.3267834186553955
 30
-0.5169514417648315
  0
SEQEND
  0
POLYLINE
  8
POLYLINE_160
  6
BYLAYER
 66
1
 70
8
 10
0.0
 20
0.0
 30
0.0
  0
VERTEX
  8
POLYLINE_160
 10
-4.4035334587097168
 20
3.2093055248260498
 30
-0.5169514417648315
  0
VERTEX
  8
POLYLINE_160
 10
-3.7972187995910645
 20
2.1634092330932617
 30
-0.5169514417648315
  0
SEQEND
  0
POLYLINE
  8
POLYLINE_161
  6
BYLAYER
 66
1
 70
8
 10
0.0
 20
0.0
 30
0.0
  0
VERTEX
  8
POLYLINE_161
 10
-4.3413958549499512
 20
3.289137601852417
 30
-0.5169514417648315
  0
VERTEX
  8
POLYLINE_161
 10
-4.4035334587097168
 20
3.2093055248260498
 30
-0.5169514417648315
  0
SEQEND
  0
POLYLINE
  8
POLYLINE_162
  6
BYLAYER
 66
1
 70
8
 10
0.0
 20
0.0
 30
0.0
  0
VERTEX
  8
POLYLINE_162
 10
-4.4627766609191895
 20
3.5459995269775391
 30
-0.5169514417648315
  0
VERTEX
  8
POLYLINE_162
 10
-4.3413958549499512
 20
3.289137601852417
 30
-0.5169514417648315
  0
SEQEND
  0
POLYLINE
  8
POLYLINE_163
  6
BYLAYER
 66
1
 70
8
 10
0.0
 20
0.0
 30
0.0
  0
VERTEX
  8
POLYLINE_163
 10
-4.8268847465515137
 20
3.3105428218841553
 30
-0.5169514417648315
  0
VERTEX
  8
POLYLINE_163
 10
-4.4627766609191895
 20
3.5459995269775391
 30
-0.5169514417648315
  0
SEQEND
  0
POLYLINE
  8
POLYLINE_164
  6
BYLAYER
 66
1
 70
8
 10
0.0
 20
0.0
 30
0.0
  0
VERTEX
  8
POLYLINE_164
 10
-4.1246256828308105
 20
1.9925920963287354
 30
-0.5169514417648315
  0
VERTEX
  8
POLYLINE_164
 10
-4.8268847465515137
 20
3.3105428218841553
 30
-0.5169514417648315
  0
SEQEND
  0
POLYLINE
  8
POLYLINE_165
  6
BYLAYER
 66
1
 70
8
 10
0.0
 20
0.0
 30
0.0
  0
VERTEX
  8
POLYLINE_165
 10
-24.7238979339599609
 20
-10.4416103363037109
 30
-0.5169514417648315
  0
VERTEX
  8
POLYLINE_165
 10
-4.1246256828308105
 20
1.9925920963287354
 30
-0.5169514417648315
  0
SEQEND
  0
POLYLINE
  8
POLYLINE_166
  6
BYLAYER
 66
1
 70
8
 10
0.0
 20
0.0
 30
0.0
  0
VERTEX
  8
POLYLINE_166
 10
-10.779728889465332
 20
-21.486785888671875
 30
-0.5169514417648315
  0
VERTEX
  8
POLYLINE_166
 10
-6.2108068466186523
 20
-29.0765571594238281
 30
-0.5169514417648315
  0
SEQEND
  0
POLYLINE
  8
POLYLINE_167
  6
BYLAYER
 66
1
 70
8
 10
0.0
 20
0.0
 30
0.0
  0
VERTEX
  8
POLYLINE_167
 10
-11.8697271347045898
 20
-19.6543464660644531
 30
-0.5169514417648315
  0
VERTEX
  8
POLYLINE_167
 10
-11.593597412109375
 20
-20.1339149475097656
 30
-0.5169514417648315
  0
SEQEND
  0
POLYLINE
  8
POLYLINE_168
  6
BYLAYER
 66
1
 70
8
 10
0.0
 20
0.0
 30
0.0
  0
VERTEX
  8
POLYLINE_168
 10
-17.0716152191162109
 20
-23.0264968872070312
 30
-0.5169514417648315
  0
VERTEX
  8
POLYLINE_168
 10
-11.7575960159301758
 20
-19.8362979888916016
 30
-0.5169514417648315
  0
SEQEND
  0
POLYLINE
  8
POLYLINE_169
  6
BYLAYER
 66
1
 70
8
 10
0.0
 20
0.0
 30
0.0
  0
VERTEX
  8
POLYLINE_169
 10
-50.6403846740722656
 20
-26.3357448577880859
 30
-0.5169514417648315
  0
VERTEX
  8
POLYLINE_169
 10
-61.2413673400878906
 20
-32.4508934020996094
 30
-0.5169514417648315
  0
SEQEND
  0
POLYLINE
  8
POLYLINE_170
  6
BYLAYER
 66
1
 70
8
 10
0.0
 20
0.0
 30
0.0
  0
VERTEX
  8
POLYLINE_170
 10
-28.849334716796875
 20
-12.9374446868896484
 30
-0.5169514417648315
  0
VERTEX
  8
POLYLINE_170
 10
-44.8152198791503906
 20
-22.6703529357910156
 30
-0.5169514417648315
  0
SEQEND
  0
POLYLINE
  8
POLYLINE_171
  6
BYLAYER
 66
1
 70
8
 10
0.0
 20
0.0
 30
0.0
  0
VERTEX
  8
POLYLINE_171
 10
-24.7238979339599609
 20
-10.4416103363037109
 30
-0.5169514417648315
  0
VERTEX
  8
POLYLINE_171
 10
-25.4117431640625
 20
-10.891535758972168
 30
-0.5169514417648315
  0
SEQEND
  0
POLYLINE
  8
POLYLINE_172
  6
BYLAYER
 66
1
 70
8
 10
0.0
 20
0.0
 30
0.0
  0
VERTEX
  8
POLYLINE_172
 10
-21.3126449584960938
 20
-16.0278186798095703
 30
-0.5169514417648315
  0
VERTEX
  8
POLYLINE_172
 10
-24.7238979339599609
 20
-10.4416103363037109
 30
-0.5169514417648315
  0
SEQEND
  0
POLYLINE
  8
POLYLINE_173
  6
BYLAYER
 66
1
 70
8
 10
0.0
 20
0.0
 30
0.0
  0
VERTEX
  8
POLYLINE_173
 10
-4.7773323059082031
 20
-6.1061573028564453
 30
-0.5169514417648315
  0
VERTEX
  8
POLYLINE_173
 10
-21.3126449584960938
 20
-16.0278186798095703
 30
-0.5169514417648315
  0
SEQEND
  0
POLYLINE
  8
POLYLINE_174
  6
BYLAYER
 66
1
 70
8
 10
0.0
 20
0.0
 30
0.0
  0
VERTEX
  8
POLYLINE_174
 10
-4.6487846374511719
 20
-6.1061573028564453
 30
-0.5169514417648315
  0
VERTEX
  8
POLYLINE_174
 10
-4.7773323059082031
 20
-6.1061573028564453
 30
-0.5169514417648315
  0
SEQEND
  0
POLYLINE
  8
POLYLINE_175
  6
BYLAYER
 66
1
 70
8
 10
0.0
 20
0.0
 30
0.0
  0
VERTEX
  8
POLYLINE_175
 10
-4.5811476707458496
 20
-6.0593070983886719
 30
-0.5169514417648315
  0
VERTEX
  8
POLYLINE_175
 10
-4.6487846374511719
 20
-6.1061573028564453
 30
-0.5169514417648315
  0
SEQEND
  0
POLYLINE
  8
POLYLINE_176
  6
BYLAYER
 66
1
 70
8
 10
0.0
 20
0.0
 30
0.0
  0
VERTEX
  8
POLYLINE_176
 10
-4.0248603820800781
 20
-5.7257580757141113
 30
-0.5169514417648315
  0
VERTEX
  8
POLYLINE_176
 10
-4.5811476707458496
 20
-6.0593070983886719
 30
-0.5169514417648315
  0
SEQEND
  0
POLYLINE
  8
POLYLINE_177
  6
BYLAYER
 66
1
 70
8
 10
0.0
 20
0.0
 30
0.0
  0
VERTEX
  8
POLYLINE_177
 10
-4.0732321739196777
 20
-5.6411619186401367
 30
-0.5169514417648315
  0
VERTEX
  8
POLYLINE_177
 10
-4.0248603820800781
 20
-5.7257580757141113
 30
-0.5169514417648315
  0
SEQEND
  0
POLYLINE
  8
POLYLINE_178
  6
BYLAYER
 66
1
 70
8
 10
0.0
 20
0.0
 30
0.0
  0
VERTEX
  8
POLYLINE_178
 10
-2.7157654762268066
 20
-4.8646173477172852
 30
-0.5169514417648315
  0
VERTEX
  8
POLYLINE_178
 10
-4.0732321739196777
 20
-5.6411619186401367
 30
-0.5169514417648315
  0
SEQEND
  0
POLYLINE
  8
POLYLINE_179
  6
BYLAYER
 66
1
 70
8
 10
0.0
 20
0.0
 30
0.0
  0
VERTEX
  8
POLYLINE_179
 10
-2.6867401599884033
 20
-4.9202117919921875
 30
-0.5169514417648315
  0
VERTEX
  8
POLYLINE_179
 10
-2.7157654762268066
 20
-4.8646173477172852
 30
-0.5169514417648315
  0
SEQEND
  0
POLYLINE
  8
POLYLINE_180
  6
BYLAYER
 66
1
 70
8
 10
0.0
 20
0.0
 30
0.0
  0
VERTEX
  8
POLYLINE_180
 10
-0.5751113891601562
 20
-3.6806621551513672
 30
-0.5169514417648315
  0
VERTEX
  8
POLYLINE_180
 10
-2.6867401599884033
 20
-4.9202117919921875
 30
-0.5169514417648315
  0
SEQEND
  0
POLYLINE
  8
POLYLINE_181
  6
BYLAYER
 66
1
 70
8
 10
0.0
 20
0.0
 30
0.0
  0
VERTEX
  8
POLYLINE_181
 10
-0.605931282043457
 20
-3.6226179599761963
 30
-0.5169514417648315
  0
VERTEX
  8
POLYLINE_181
 10
-0.5751113891601562
 20
-3.6806621551513672
 30
-0.5169514417648315
  0
SEQEND
  0
POLYLINE
  8
POLYLINE_182
  6
BYLAYER
 66
1
 70
8
 10
0.0
 20
0.0
 30
0.0
  0
VERTEX
  8
POLYLINE_182
 10
-0.4214863777160645
 20
-3.5304551124572754
 30
-0.5169514417648315
  0
VERTEX
  8
POLYLINE_182
 10
-0.605931282043457
 20
-3.6226179599761963
 30
-0.5169514417648315
  0
SEQEND
  0
POLYLINE
  8
POLYLINE_183
  6
BYLAYER
 66
1
 70
8
 10
0.0
 20
0.0
 30
0.0
  0
VERTEX
  8
POLYLINE_183
 10
7.3267173767089844
 20
1.0695855617523193
 30
-0.5169514417648315
  0
VERTEX
  8
POLYLINE_183
 10
4.6136255264282227
 20
-0.5526069402694702
 30
-0.5169514417648315
  0
SEQEND
  0
POLYLINE
  8
POLYLINE_184
  6
BYLAYER
 66
1
 70
8
 10
0.0
 20
0.0
 30
0.0
  0
VERTEX
  8
POLYLINE_184
 10
7.354677677154541
 20
1.026198148727417
 30
-0.5169514417648315
  0
VERTEX
  8
POLYLINE_184
 10
7.3267173767089844
 20
1.0695855617523193
 30
-0.5169514417648315
  0
SEQEND
  0
POLYLINE
  8
POLYLINE_185
  6
BYLAYER
 66
1
 70
8
 10
0.0
 20
0.0
 30
0.0
  0
VERTEX
  8
POLYLINE_185
 10
7.4035820960998535
 20
1.0675538778305054
 30
-0.5169514417648315
  0
VERTEX
  8
POLYLINE_185
 10
7.354677677154541
 20
1.026198148727417
 30
-0.5169514417648315
  0
SEQEND
  0
POLYLINE
  8
POLYLINE_186
  6
BYLAYER
 66
1
 70
8
 10
0.0
 20
0.0
 30
0.0
  0
VERTEX
  8
POLYLINE_186
 10
4.528170108795166
 20
5.7382636070251465
 30
-0.5169514417648315
  0
VERTEX
  8
POLYLINE_186
 10
7.4035820960998535
 20
1.0675538778305054
 30
-0.5169514417648315
  0
SEQEND
  0
POLYLINE
  8
POLYLINE_187
  6
BYLAYER
 66
1
 70
8
 10
0.0
 20
0.0
 30
0.0
  0
VERTEX
  8
POLYLINE_187
 10
8.7997064590454102
 20
3.9729835987091064
 30
-0.5169514417648315
  0
VERTEX
  8
POLYLINE_187
 10
8.4060173034667969
 20
4.6267504692077637
 30
-0.5169514417648315
  0
SEQEND
  0
POLYLINE
  8
POLYLINE_188
  6
BYLAYER
 66
1
 70
8
 10
0.0
 20
0.0
 30
0.0
  0
VERTEX
  8
POLYLINE_188
 10
10.6925048828125
 20
0.7902291417121887
 30
-0.5169514417648315
  0
VERTEX
  8
POLYLINE_188
 10
9.1666975021362305
 20
3.3513863086700439
 30
-0.5169514417648315
  0
SEQEND
  0
POLYLINE
  8
POLYLINE_189
  6
BYLAYER
 66
1
 70
8
 10
0.0
 20
0.0
 30
0.0
  0
VERTEX
  8
POLYLINE_189
 10
17.5925350189208984
 20
1.7566878795623779
 30
-0.5169514417648315
  0
VERTEX
  8
POLYLINE_189
 10
16.3094902038574219
 20
3.9494585990905762
 30
-0.5169514417648315
  0
SEQEND
  0
POLYLINE
  8
POLYLINE_190
  6
BYLAYER
 66
1
 70
8
 10
0.0
 20
0.0
 30
0.0
  0
VERTEX
  8
POLYLINE_190
 10
12.085850715637207
 20
-1.5290763378143311
 30
-0.5169514417648315
  0
VERTEX
  8
POLYLINE_190
 10
17.5925350189208984
 20
1.7566878795623779
 30
-0.5169514417648315
  0
SEQEND
  0
POLYLINE
  8
POLYLINE_191
  6
BYLAYER
 66
1
 70
8
 10
0.0
 20
0.0
 30
0.0
  0
VERTEX
  8
POLYLINE_191
 10
12.3450765609741211
 20
-1.9546767473220825
 30
-0.5169514417648315
  0
VERTEX
  8
POLYLINE_191
 10
12.085850715637207
 20
-1.5290763378143311
 30
-0.5169514417648315
  0
SEQEND
  0
POLYLINE
  8
POLYLINE_192
  6
BYLAYER
 66
1
 70
8
 10
0.0
 20
0.0
 30
0.0
  0
VERTEX
  8
POLYLINE_192
 10
9.0167427062988281
 20
-19.7803859710693359
 30
-0.5169514417648315
  0
VERTEX
  8
POLYLINE_192
 10
-11.4342184066772461
 20
-32.0780830383300781
 30
-0.5169514417648315
  0
SEQEND
  0
POLYLINE
  8
POLYLINE_193
  6
BYLAYER
 66
1
 70
8
 10
0.0
 20
0.0
 30
0.0
  0
VERTEX
  8
POLYLINE_193
 10
6.7379665374755859
 20
-15.6935920715332031
 30
-0.5169514417648315
  0
VERTEX
  8
POLYLINE_193
 10
9.0167427062988281
 20
-19.7803859710693359
 30
-0.5169514417648315
  0
SEQEND
  0
POLYLINE
  8
POLYLINE_194
  6
BYLAYER
 66
1
 70
8
 10
0.0
 20
0.0
 30
0.0
  0
VERTEX
  8
POLYLINE_194
 10
14.5707454681396484
 20
-11.0692195892333984
 30
-0.5169514417648315
  0
VERTEX
  8
POLYLINE_194
 10
6.7379665374755859
 20
-15.6935920715332031
 30
-0.5169514417648315
  0
SEQEND
  0
POLYLINE
  8
POLYLINE_195
  6
BYLAYER
 66
1
 70
8
 10
0.0
 20
0.0
 30
0.0
  0
VERTEX
  8
POLYLINE_195
 10
8.6356964111328125
 20
-1.1078453063964844
 30
-0.5169514417648315
  0
VERTEX
  8
POLYLINE_195
 10
14.5707454681396484
 20
-11.0692195892333984
 30
-0.5169514417648315
  0
SEQEND
  0
POLYLINE
  8
POLYLINE_196
  6
BYLAYER
 66
1
 70
8
 10
0.0
 20
0.0
 30
0.0
  0
VERTEX
  8
POLYLINE_196
 10
6.5567288398742676
 20
-2.3544142246246338
 30
-0.5169514417648315
  0
VERTEX
  8
POLYLINE_196
 10
8.6356964111328125
 20
-1.1078453063964844
 30
-0.5169514417648315
  0
SEQEND
  0
POLYLINE
  8
POLYLINE_197
  6
BYLAYER
 66
1
 70
8
 10
0.0
 20
0.0
 30
0.0
  0
VERTEX
  8
POLYLINE_197
 10
6.4973230361938477
 20
-2.2734692096710205
 30
-0.5169514417648315
  0
VERTEX
  8
POLYLINE_197
 10
6.5567288398742676
 20
-2.3544142246246338
 30
-0.5169514417648315
  0
SEQEND
  0
POLYLINE
  8
POLYLINE_198
  6
BYLAYER
 66
1
 70
8
 10
0.0
 20
0.0
 30
0.0
  0
VERTEX
  8
POLYLINE_198
 10
-0.0738184973597527
 20
-6.2083835601806641
 30
-0.5169514417648315
  0
VERTEX
  8
POLYLINE_198
 10
6.4973230361938477
 20
-2.2734692096710205
 30
-0.5169514417648315
  0
SEQEND
  0
POLYLINE
  8
POLYLINE_199
  6
BYLAYER
 66
1
 70
8
 10
0.0
 20
0.0
 30
0.0
  0
VERTEX
  8
POLYLINE_199
 10
-12.5511922836303711
 20
-13.6623163223266602
 30
-0.5169514417648315
  0
VERTEX
  8
POLYLINE_199
 10
-1.4502841234207153
 20
-7.0524530410766602
 30
-0.5169514417648315
  0
SEQEND
  0
POLYLINE
  8
POLYLINE_200
  6
BYLAYER
 66
1
 70
8
 10
0.0
 20
0.0
 30
0.0
  0
VERTEX
  8
POLYLINE_200
 10
-14.7767810821533203
 20
-14.9615592956542969
 30
-0.5169514417648315
  0
VERTEX
  8
POLYLINE_200
 10
-13.9227972030639648
 20
-14.4534788131713867
 30
-0.5169514417648315
  0
SEQEND
  0
POLYLINE
  8
POLYLINE_201
  6
BYLAYER
 66
1
 70
8
 10
0.0
 20
0.0
 30
0.0
  0
VERTEX
  8
POLYLINE_201
 10
-14.7767810821533203
 20
-14.9615592956542969
 30
-0.5169514417648315
  0
VERTEX
  8
POLYLINE_201
 10
-12.2919321060180664
 20
-18.9311408996582031
 30
-0.5169514417648315
  0
SEQEND
  0
POLYLINE
  8
POLYLINE_202
  6
BYLAYER
 66
1
 70
8
 10
0.0
 20
0.0
 30
0.0
  0
VERTEX
  8
POLYLINE_202
 10
-20.0328540802001953
 20
-18.0886783599853516
 30
-0.5169514417648315
  0
VERTEX
  8
POLYLINE_202
 10
-14.7767810821533203
 20
-14.9615592956542969
 30
-0.5169514417648315
  0
SEQEND
  0
POLYLINE
  8
POLYLINE_203
  6
BYLAYER
 66
1
 70
8
 10
0.0
 20
0.0
 30
0.0
  0
VERTEX
  8
POLYLINE_203
 10
-11.4342184066772461
 20
-32.0780830383300781
 30
-0.5169514417648315
  0
VERTEX
  8
POLYLINE_203
 10
-20.0328540802001953
 20
-18.0886783599853516
 30
-0.5169514417648315
  0
SEQEND
  0
POLYLINE
  8
POLYLINE_204
  6
BYLAYER
 66
1
 70
8
 10
0.0
 20
0.0
 30
0.0
  0
VERTEX
  8
POLYLINE_204
 10
-48.1107330322265625
 20
-54.3484725952148438
 30
-0.5169514417648315
  0
VERTEX
  8
POLYLINE_204
 10
-11.4342184066772461
 20
-32.0780830383300781
 30
-0.5169514417648315
  0
SEQEND
  0
POLYLINE
  8
POLYLINE_205
  6
BYLAYER
 66
1
 70
8
 10
0.0
 20
0.0
 30
0.0
  0
VERTEX
  8
POLYLINE_205
 10
-61.2413673400878906
 20
-32.4508934020996094
 30
-0.5169514417648315
  0
VERTEX
  8
POLYLINE_205
 10
-48.1107330322265625
 20
-54.3484725952148438
 30
-0.5169514417648315
  0
SEQEND
  0
ENDSEC
  0
SECTION
  2
OBJECTS
  0
DICTIONARY
  5
C
100
AcDbDictionary
280
0
281
1
  3
ACAD_GROUP
350
D
  3
ACAD_LAYOUT
350
1A
  3
ACAD_MLINESTYLE
350
17
  3
ACAD_PLOTSETTINGS
350
19
  3
ACAD_PLOTSTYLENAME
350
E
  3
AcDbVariableDictionary
350
30
  0
DICTIONARY
  5
D
100
AcDbDictionary
280
0
281
1
  0
ACDBDICTIONARYWDFLT
  5
E
100
AcDbDictionary
281
1
  3
Normal
350
F
100
AcDbDictionaryWithDefault
340
F
  0
ACDBPLACEHOLDER
  5
F
  0
DICTIONARY
  5
17
100
AcDbDictionary
280
0
281
1
  3
Standard
350
18
  0
MLINESTYLE
  5
18
100
AcDbMlineStyle
  2
STANDARD
 70
0
  3

 62
256
 51
90.0
 52
90.0
 71
2
 49
0.5
 62
256
  6
BYLAYER
 49
-0.5
 62
256
  6
BYLAYER
  0
DICTIONARY
  5
19
100
AcDbDictionary
280
0
281
1
  0
DICTIONARY
  5
1A
100
AcDbDictionary
281
1
  3
Layout1
350
1E
  3
Layout2
350
26
  3
Model
350
22
  0
LAYOUT
  5
1E
100
AcDbPlotSettings
  1

  2
none_device
  4

  6

 40
0.0
 41
0.0
 42
0.0
 43
0.0
 44
0.0
 45
0.0
 46
0.0
 47
0.0
 48
0.0
 49
0.0
140
0.0
141
0.0
142
1.0
143
1.0
 70
688
 72
0
 73
0
 74
5
  7

 75
16
147
1.0
148
0.0
149
0.0
100
AcDbLayout
  1
Layout1
 70
1
 71
1
 10
0.0
 20
0.0
 11
420.0
 21
297.0
 12
0.0
 22
0.0
 32
0.0
 14
100000000000000000000.0
 24
100000000000000000000.0
 34
100000000000000000000.0
 15
-100000000000000000000.0
 25
-100000000000000000000.0
 35
-100000000000000000000.0
146
0.0
 13
0.0
 23
0.0
 33
0.0
 16
1.0
 26
0.0
 36
0.0
 17
0.0
 27
1.0
 37
0.0
 76
0
330
1B
  0
LAYOUT
  5
22
100
AcDbPlotSettings
  1

  2
none_device
  4

  6

 40
0.0
 41
0.0
 42
0.0
 43
0.0
 44
0.0
 45
0.0
 46
0.0
 47
0.0
 48
0.0
 49
0.0
140
0.0
141
0.0
142
1.0
143
1.0
 70
1712
 72
0
 73
0
 74
0
  7

 75
0
147
1.0
148
0.0
149
0.0
100
AcDbLayout
  1
Model
 70
1
 71
0
 10
0.0
 20
0.0
 11
12.0
 21
9.0
 12
0.0
 22
0.0
 32
0.0
 14
0.0
 24
0.0
 34
0.0
 15
0.0
 25
0.0
 35
0.0
146
0.0
 13
0.0
 23
0.0
 33
0.0
 16
1.0
 26
0.0
 36
0.0
 17
0.0
 27
1.0
 37
0.0
 76
0
330
1F
  0
LAYOUT
  5
26
100
AcDbPlotSettings
  1

  2
none_device
  4

  6

 40
0.0
 41
0.0
 42
0.0
 43
0.0
 44
0.0
 45
0.0
 46
0.0
 47
0.0
 48
0.0
 49
0.0
140
0.0
141
0.0
142
1.0
143
1.0
 70
688
 72
0
 73
0
 74
5
  7

 75
16
147
1.0
148
0.0
149
0.0
100
AcDbLayout
  1
Layout2
 70
1
 71
2
 10
0.0
 20
0.0
 11
12.0
 21
9.0
 12
0.0
 22
0.0
 32
0.0
 14
0.0
 24
0.0
 34
0.0
 15
0.0
 25
0.0
 35
0.0
146
0.0
 13
0.0
 23
0.0
 33
0.0
 16
1.0
 26
0.0
 36
0.0
 17
0.0
 27
1.0
 37
0.0
 76
0
330
23
  0
DICTIONARY
  5
30
100
AcDbDictionary
281
1
  3
DIMASSOC
350
32
  3
HIDETEXT
350
31
  0
DICTIONARYVAR
  5
31
100
DictionaryVariables
280
0
  1
2
  0
DICTIONARYVAR
  5
32
100
DictionaryVariables
280
0
  1
1
  0
ENDSEC
  0
EOF
