999
dxflib 3.17.0.0
  0
SECTION
  2
HEADER
  9
$ACADVER
  1
AC1009
  9
$INSBASE
 10
0.0
 20
0.0
 30
0.0
  9
$EXTMIN
 10
-309.3541973114013786
 20
-122.8960140228271456
 30
-18.2251646995544441
  9
$EXTMAX
 10
92.7764614105224581
 20
42.667586135864255
 30
19.0101947665214546
  9
$LIMMIN
 10
-309.3541973114013786
 20
-122.8960140228271456
  9
$LIMMAX
 10
92.7764614105224581
 20
42.667586135864255
  0
ENDSEC
  0
SECTION
  2
TABLES
  0
TABLE
  2
VPORT
 70
1
  0
VPORT
  2
*Active
 70
0
 10
0.0
 20
0.0
 11
1.0
 21
1.0
 12
286.3055555555554861
 22
148.5
 13
0.0
 23
0.0
 14
10.0
 24
10.0
 15
10.0
 25
10.0
 16
0.0
 26
0.0
 36
1.0
 17
0.0
 27
0.0
 37
0.0
 40
297.0
 41
1.92798353909465
 42
50.0
 43
0.0
 44
0.0
 50
0.0
 51
0.0
 71
0
 72
100
 73
1
 74
3
 75
1
 76
1
 77
0
 78
0
  0
ENDTAB
  0
TABLE
  2
LTYPE
 70
3
  0
LTYPE
  2
CONTINUOUS
 70
0
  3
Solid line
 72
65
 73
0
 40
0.0
  0
ENDTAB
  0
TABLE
  2
LAYER
 70
4
  0
LAYER
  2
0
 70
0
 62
250
  6
CONTINUOUS
  0
LAYER
  2
POLYLINE_001
 70
0
 62
3
  6
CONTINUOUS
  0
LAYER
  2
POLYLINE_002
 70
0
 62
3
  6
CONTINUOUS
  0
LAYER
  2
POLYLINE_003
 70
0
 62
3
  6
CONTINUOUS
  0
ENDTAB
  0
TABLE
  2
STYLE
 70
1
  0
STYLE
  2
Standard
 70
0
 40
0.0
 41
0.75
 50
0.0
 71
0
 42
2.5
  3
txt
  4

  0
ENDTAB
  0
TABLE
  2
VIEW
 70
0
  0
ENDTAB
  0
TABLE
  2
UCS
 70
0
  0
ENDTAB
  0
TABLE
  2
APPID
 70
1
  0
APPID
  2
ACAD
 70
0
  0
ENDTAB
  0
TABLE
  2
DIMSTYLE
 70
1
  0
DIMSTYLE
  2
Standard
  3

  4

  5

  6

  7

 40
1.0
 41
1.0
 42
1.0
 43
3.75
 44
1.0
 45
0.0
 46
0.0
 47
0.0
 48
0.0
 70
0
 71
0
 72
0
 73
0
 74
0
 75
0
 76
0
 77
1
 78
8
140
1.0
141
2.5
142
0.0
143
0.03937007874016
144
1.0
145
0.0
146
1.0
147
1.0
170
0
171
3
172
1
173
0
174
0
175
0
176
0
177
0
178
0
  0
ENDTAB
  0
TABLE
  2
BLOCK_RECORD
 70
1
  0
BLOCK_RECORD
  2
*Model_Space
340
22
  0
BLOCK_RECORD
  2
*Paper_Space
340
1E
  0
BLOCK_RECORD
  2
*Paper_Space0
340
26
  0
ENDTAB
  0
ENDSEC
  0
SECTION
  2
BLOCKS
  0
BLOCK
  2
*Model_Space
 70
0
 10
0.0
 20
0.0
 30
0.0
  3
*Model_Space
  1

  0
ENDBLK
  0
BLOCK
  2
*Paper_Space
 70
0
 10
0.0
 20
0.0
 30
0.0
  3
*Paper_Space
  1

  0
ENDBLK
  0
BLOCK
  2
*Paper_Space0
 70
0
 10
0.0
 20
0.0
 30
0.0
  3
*Paper_Space0
  1

  0
ENDBLK
  0
ENDSEC
  0
SECTION
  2
ENTITIES
  0
POLYLINE
  8
POLYLINE_001
  6
BYLAYER
 66
1
 70
8
 10
0.0
 20
0.0
 30
0.0
  0
VERTEX
  8
POLYLINE_001
 10
-30.3754901885986328
 20
-76.0593414306640625
 30
0.0535016059875488
  0
VERTEX
  8
POLYLINE_001
 10
-270.367431640625
 20
-76.2848129272460938
 30
0.6798930168151855
  0
VERTEX
  8
POLYLINE_001
 10
-286.46002197265625
 20
-82.7625656127929688
 30
0.2581847608089447
  0
VERTEX
  8
POLYLINE_001
 10
-291.075531005859375
 20
-94.2294235229492188
 30
0.2126473933458328
  0
VERTEX
  8
POLYLINE_001
 10
71.5701522827148438
 20
-104.6173477172851562
 30
0.2524909675121307
  0
VERTEX
  8
POLYLINE_001
 10
59.0489006042480469
 20
-91.5597610473632812
 30
0.0535016059875488
  0
VERTEX
  8
POLYLINE_001
 10
23.9709548950195312
 20
-76.1021194458007812
 30
0.1638438701629639
  0
VERTEX
  8
POLYLINE_001
 10
-16.2215709686279297
 20
-76.1654510498046875
 30
0.3272020518779755
  0
SEQEND
  0
POLYLINE
  8
POLYLINE_002
  6
BYLAYER
 66
1
 70
8
 10
0.0
 20
0.0
 30
0.0
  0
VERTEX
  8
POLYLINE_002
 10
38.1156234741210938
 20
24.0764369964599609
 30
0.1380420476198196
  0
VERTEX
  8
POLYLINE_002
 10
38.0480079650878906
 20
-5.173952579498291
 30
0.3221888840198517
  0
VERTEX
  8
POLYLINE_002
 10
-255.6102752685546875
 20
-7.4903144836425781
 30
0.6491191983222961
  0
VERTEX
  8
POLYLINE_002
 10
-255.5967864990234375
 20
-1.8304904699325562
 30
0.6712279915809631
  0
VERTEX
  8
POLYLINE_002
 10
-204.2538604736328125
 20
-1.6050980091094971
 30
0.6026808023452759
  0
VERTEX
  8
POLYLINE_002
 10
25.9657077789306641
 20
23.9991703033447266
 30
0.5372815132141113
  0
VERTEX
  8
POLYLINE_002
 10
37.9557304382324219
 20
21.9263114929199219
 30
0.6127752065658569
  0
VERTEX
  8
POLYLINE_002
 10
37.9557304382324219
 20
-5.0419831275939941
 30
0.5855400562286377
  0
SEQEND
  0
POLYLINE
  8
POLYLINE_003
  6
BYLAYER
 66
1
 70
8
 10
0.0
 20
0.0
 30
0.0
  0
VERTEX
  8
POLYLINE_003
 10
59.6528816223144531
 20
23.8614559173583984
 30
0.7315284609794617
  0
VERTEX
  8
POLYLINE_003
 10
67.5967636108398438
 20
24.2326526641845703
 30
0.2731038630008698
  0
VERTEX
  8
POLYLINE_003
 10
72.4218902587890625
 20
21.4393024444580078
 30
0.5095972418785095
  0
VERTEX
  8
POLYLINE_003
 10
74.4977951049804688
 20
16.6563034057617188
 30
0.067838080227375
  0
VERTEX
  8
POLYLINE_003
 10
73.6809234619140625
 20
-2.9519824981689453
 30
0.0744558051228523
  0
VERTEX
  8
POLYLINE_003
 10
72.6487197875976562
 20
-3.9027390480041504
 30
0.223208099603653
  0
VERTEX
  8
POLYLINE_003
 10
69.6001815795898438
 20
-4.9380035400390625
 30
0.4912051558494568
  0
VERTEX
  8
POLYLINE_003
 10
59.5467643737792969
 20
-5.522862434387207
 30
0.4282494485378265
  0
VERTEX
  8
POLYLINE_003
 10
59.5561866760253906
 20
24.3889198303222656
 30
0.1833056509494781
  0
SEQEND
  0
ENDSEC
  0
SECTION
  2
OBJECTS
  0
DICTIONARY
  5
C
100
AcDbDictionary
280
0
281
1
  3
ACAD_GROUP
350
D
  3
ACAD_LAYOUT
350
1A
  3
ACAD_MLINESTYLE
350
17
  3
ACAD_PLOTSETTINGS
350
19
  3
ACAD_PLOTSTYLENAME
350
E
  3
AcDbVariableDictionary
350
30
  0
DICTIONARY
  5
D
100
AcDbDictionary
280
0
281
1
  0
ACDBDICTIONARYWDFLT
  5
E
100
AcDbDictionary
281
1
  3
Normal
350
F
100
AcDbDictionaryWithDefault
340
F
  0
ACDBPLACEHOLDER
  5
F
  0
DICTIONARY
  5
17
100
AcDbDictionary
280
0
281
1
  3
Standard
350
18
  0
MLINESTYLE
  5
18
100
AcDbMlineStyle
  2
STANDARD
 70
0
  3

 62
256
 51
90.0
 52
90.0
 71
2
 49
0.5
 62
256
  6
BYLAYER
 49
-0.5
 62
256
  6
BYLAYER
  0
DICTIONARY
  5
19
100
AcDbDictionary
280
0
281
1
  0
DICTIONARY
  5
1A
100
AcDbDictionary
281
1
  3
Layout1
350
1E
  3
Layout2
350
26
  3
Model
350
22
  0
LAYOUT
  5
1E
100
AcDbPlotSettings
  1

  2
none_device
  4

  6

 40
0.0
 41
0.0
 42
0.0
 43
0.0
 44
0.0
 45
0.0
 46
0.0
 47
0.0
 48
0.0
 49
0.0
140
0.0
141
0.0
142
1.0
143
1.0
 70
688
 72
0
 73
0
 74
5
  7

 75
16
147
1.0
148
0.0
149
0.0
100
AcDbLayout
  1
Layout1
 70
1
 71
1
 10
0.0
 20
0.0
 11
420.0
 21
297.0
 12
0.0
 22
0.0
 32
0.0
 14
100000000000000000000.0
 24
100000000000000000000.0
 34
100000000000000000000.0
 15
-100000000000000000000.0
 25
-100000000000000000000.0
 35
-100000000000000000000.0
146
0.0
 13
0.0
 23
0.0
 33
0.0
 16
1.0
 26
0.0
 36
0.0
 17
0.0
 27
1.0
 37
0.0
 76
0
330
1B
  0
LAYOUT
  5
22
100
AcDbPlotSettings
  1

  2
none_device
  4

  6

 40
0.0
 41
0.0
 42
0.0
 43
0.0
 44
0.0
 45
0.0
 46
0.0
 47
0.0
 48
0.0
 49
0.0
140
0.0
141
0.0
142
1.0
143
1.0
 70
1712
 72
0
 73
0
 74
0
  7

 75
0
147
1.0
148
0.0
149
0.0
100
AcDbLayout
  1
Model
 70
1
 71
0
 10
0.0
 20
0.0
 11
12.0
 21
9.0
 12
0.0
 22
0.0
 32
0.0
 14
0.0
 24
0.0
 34
0.0
 15
0.0
 25
0.0
 35
0.0
146
0.0
 13
0.0
 23
0.0
 33
0.0
 16
1.0
 26
0.0
 36
0.0
 17
0.0
 27
1.0
 37
0.0
 76
0
330
1F
  0
LAYOUT
  5
26
100
AcDbPlotSettings
  1

  2
none_device
  4

  6

 40
0.0
 41
0.0
 42
0.0
 43
0.0
 44
0.0
 45
0.0
 46
0.0
 47
0.0
 48
0.0
 49
0.0
140
0.0
141
0.0
142
1.0
143
1.0
 70
688
 72
0
 73
0
 74
5
  7

 75
16
147
1.0
148
0.0
149
0.0
100
AcDbLayout
  1
Layout2
 70
1
 71
2
 10
0.0
 20
0.0
 11
12.0
 21
9.0
 12
0.0
 22
0.0
 32
0.0
 14
0.0
 24
0.0
 34
0.0
 15
0.0
 25
0.0
 35
0.0
146
0.0
 13
0.0
 23
0.0
 33
0.0
 16
1.0
 26
0.0
 36
0.0
 17
0.0
 27
1.0
 37
0.0
 76
0
330
23
  0
DICTIONARY
  5
30
100
AcDbDictionary
281
1
  3
DIMASSOC
350
32
  3
HIDETEXT
350
31
  0
DICTIONARYVAR
  5
31
100
DictionaryVariables
280
0
  1
2
  0
DICTIONARYVAR
  5
32
100
DictionaryVariables
280
0
  1
1
  0
ENDSEC
  0
EOF
